<?xml version="1.0" encoding="UTF-8"?><svg id="Layer_2" xmlns="http://www.w3.org/2000/svg" viewBox="0 0 131.26 55.8"><defs><style>.cls-1{fill:#fff;}</style></defs><g id="Layer_1-2"><path class="cls-1" d="m39.96,2.3c.86-1.58,1.66-2.3,3.46-2.3,1.94,0,3.17,1.22,3.17,3.31,0,3.38-4.61,6.62-10.73,6.62h-8.71c-1.51,0-2.38.29-3.17,1.94l-3.96,8.42c2.45-1.3,4.75-1.94,7.2-1.94,8.42,0,13.1,4.68,13.1,12.96,0,11.81-10.15,24.41-24.63,24.41-11.95,0-15.7-7.92-15.7-10.23,0-1.8,1.51-3.17,3.02-3.17,2.09,0,3.02.94,4.25,2.95,1.22,2.16,3.53,5.4,8.42,5.4,9.79,0,16.99-10.08,16.99-19.59,0-5.33-2.3-7.85-5.83-7.85-2.81,0-5.11,1.01-7.06,2.02-2.02,1.01-3.02,1.94-4.82,1.94-1.51,0-3.24-.94-3.24-2.74,0-.79.29-1.44.5-1.94l5.76-13.32c1.44-3.24,3.24-4.54,6.26-4.54h9.43c3.67,0,5.4-.79,6.26-2.38Z"/><path class="cls-1" d="m48.96,53.21c0-1.58,1.22-2.45,3.31-2.45,12.02,0,26.71-14.04,26.71-29.38,0-7.42-3.6-11.67-9.43-11.67-8.57,0-17.57,10.51-17.57,20.02,0,5.69,2.59,8.42,6.7,8.42,7.34,0,7.99-4.39,10.37-4.39,1.22,0,2.3.79,2.3,2.09,0,2.45-5.11,7.27-12.75,7.27-8.5,0-14.11-4.68-14.11-13.39,0-12.02,12.39-25.06,24.99-25.06,10.23,0,17.07,6.19,17.07,16.71,0,17.93-17.21,34.35-34.49,34.35-1.94,0-3.1-1.01-3.1-2.52Z"/><path class="cls-1" d="m105.41,26.64c5.9-7.2,11.02-12.46,15.84-16.92h-16.27c-4.68,0-7.85,2.16-8.57,5.26-.5,2.3-1.66,3.74-3.89,3.74-2.09,0-3.46-1.37-3.46-3.6,0-5.33,5.98-10.44,13.75-10.44h25.13c2.38,0,3.31.72,3.31,2.23,0,1.37-1.01,2.38-2.81,3.96-5.04,4.25-9.94,9.43-16.78,17.71-7.63,9.36-13.03,17.86-16.2,24.19-.94,1.87-1.8,3.02-3.53,3.02-2.45,0-3.6-1.44-3.6-3.38,0-.94.22-1.51.72-2.52,2.88-6.19,9.5-14.98,16.35-23.26Z"/></g></svg>