<?xml version="1.0" encoding="UTF-8"?><svg id="Layer_2" xmlns="http://www.w3.org/2000/svg" xmlns:xlink="http://www.w3.org/1999/xlink" viewBox="0 0 240.95 155.91"><defs><style>.cls-1{fill:#fff;}.cls-2{letter-spacing:.01em;}.cls-3{letter-spacing:0em;}.cls-4{fill:#2b374c;font-size:9px;}.cls-4,.cls-5{font-family:CFArmadilloStd-Medium, 'CF Armadillo Std';font-weight:500;}.cls-6{opacity:.6;}.cls-7{clip-path:url(#clippath-2);}.cls-8{fill:#373535;}.cls-9{letter-spacing:0em;}.cls-10{clip-path:url(#clippath-1);}.cls-11{clip-path:url(#clippath-4);}.cls-12{letter-spacing:-.06em;}.cls-13{fill:#c9e6cd;}.cls-5{fill:#90d0b9;font-size:11px;}.cls-14{clip-path:url(#clippath);}.cls-15{fill:none;}.cls-16{clip-path:url(#clippath-3);}.cls-17{letter-spacing:.01em;}.cls-18{letter-spacing:-.03em;}.cls-19{clip-path:url(#clippath-5);}.cls-20{letter-spacing:0em;}.cls-21{letter-spacing:0em;}.cls-22{letter-spacing:0em;}</style><clipPath id="clippath"><rect class="cls-15" width="240.95" height="155.91"/></clipPath><clipPath id="clippath-1"><rect class="cls-15" width="240.95" height="155.91"/></clipPath><clipPath id="clippath-2"><rect class="cls-15" width="240.95" height="155.91"/></clipPath><clipPath id="clippath-3"><rect class="cls-15" width="240.95" height="155.91"/></clipPath><clipPath id="clippath-4"><rect class="cls-15" width="240.95" height="155.91"/></clipPath><clipPath id="clippath-5"><rect class="cls-15" x="182.93" y="46.24" width="39.7" height="22.68"/></clipPath></defs><g id="Layer_1-2"><g id="Artwork_4"><g class="cls-14"><g class="cls-10"><g class="cls-7"><path class="cls-13" d="m224.44,155.91H16.5C7.39,155.91,0,148.52,0,139.41V16.5C0,7.39,7.39,0,16.5,0h207.95c9.11,0,16.5,7.39,16.5,16.5v122.91c0,9.11-7.39,16.5-16.5,16.5"/></g><text class="cls-5" transform="translate(14.63 114.97)"><tspan class="cls-9" x="0" y="0">ww</tspan><tspan class="cls-2" x="14.32" y="0">w.cap</tspan><tspan class="cls-9" x="41.11" y="0">i</tspan><tspan class="cls-3" x="45.04" y="0">o.com /card</tspan><tspan class="cls-21" x="101.63" y="0">s</tspan></text><g class="cls-16"><path class="cls-8" d="m224.13,155.91H16.82c-9.29,0-16.82-7.53-16.82-16.82v-21.94h240.95v21.94c0,9.29-7.53,16.82-16.82,16.82"/><rect class="cls-1" x="14.63" y="46.24" width="121.89" height="22.68"/></g><text class="cls-4" transform="translate(14.85 41.47)"><tspan class="cls-20" x="0" y="0">Exp.</tspan><tspan class="cls-22" x="16.7" y="0"> </tspan><tspan class="cls-17" x="19.3" y="0">Date: 0</tspan><tspan class="cls-22" x="48.34" y="0">8</tspan><tspan class="cls-20" x="53.85" y="0">/</tspan><tspan class="cls-18" x="57.28" y="0">2</tspan><tspan x="62.44" y="0">7</tspan></text><text class="cls-4" transform="translate(99.33 41.47)"><tspan class="cls-20" x="0" y="0">CV</tspan><tspan class="cls-22" x="10.07" y="0">V</tspan><tspan class="cls-20" x="15.23" y="0">:</tspan><tspan class="cls-22" x="17.39" y="0"> </tspan><tspan class="cls-12" x="19.99" y="0">1</tspan><tspan class="cls-22" x="24.9" y="0">9</tspan><tspan x="30.28" y="0">3</tspan></text><g class="cls-11"><g class="cls-6"><g class="cls-19"><path class="cls-1" d="m217.41,68.92h-29.25c-2.89,0-5.22-2.34-5.22-5.22v-12.23c0-2.89,2.34-5.22,5.22-5.22h29.25c2.89,0,5.22,2.34,5.22,5.22v12.23c0,2.89-2.34,5.22-5.22,5.22"/></g></g></g></g></g></g></g></svg>