<?xml version="1.0" encoding="UTF-8"?><svg id="Layer_2" xmlns="http://www.w3.org/2000/svg" xmlns:xlink="http://www.w3.org/1999/xlink" viewBox="0 0 240.94 155.91"><defs><style>.cls-1{letter-spacing:-.03em;}.cls-2{letter-spacing:0em;}.cls-3{clip-path:url(#clippath-2);}.cls-4{fill:#8ccfb7;}.cls-5,.cls-6{font-size:9px;}.cls-5,.cls-6,.cls-7{font-family:CFArmadilloStd-Medium, 'CF Armadillo Std';font-weight:500;}.cls-5,.cls-7{fill:#082340;}.cls-6,.cls-8{fill:#6dc067;}.cls-9{fill:#fffef9;}.cls-10{clip-path:url(#clippath-1);}.cls-11{letter-spacing:0em;}.cls-12{letter-spacing:-.05em;}.cls-13{letter-spacing:-.03em;}.cls-14{stroke:#8ccfb7;stroke-linecap:round;stroke-linejoin:round;}.cls-14,.cls-15{fill:none;}.cls-16{clip-path:url(#clippath);}.cls-17{letter-spacing:-.08em;}.cls-18{clip-path:url(#clippath-3);}.cls-19{letter-spacing:-.01em;}.cls-7{font-size:8px;}.cls-8{font-family:CFArmadilloStd-Bold, 'CF Armadillo Std';font-size:10px;font-weight:700;}.cls-20{letter-spacing:-.02em;}.cls-21{letter-spacing:-.02em;}.cls-22{fill:#6ec068;}</style><clipPath id="clippath"><rect class="cls-15" x="47.24" y="22.64" width="49.47" height="11.64"/></clipPath><clipPath id="clippath-1"><rect class="cls-15" x="47.24" y="22.64" width="49.47" height="11.64"/></clipPath><clipPath id="clippath-2"><rect class="cls-15" x="29.23" y="22.77" width="13.68" height="11.38"/></clipPath><clipPath id="clippath-3"><rect class="cls-15" x="29.23" y="22.77" width="13.68" height="11.38"/></clipPath></defs><g id="Layer_1-2"><rect class="cls-9" width="240.94" height="155.91"/><text class="cls-8" transform="translate(29.23 53.21)"><tspan x="0" y="0">Μάρ</tspan><tspan class="cls-1" x="18.61" y="0">κ</tspan><tspan x="23.25" y="0">ος </tspan><tspan class="cls-21" x="35.8" y="0">Σ</tspan><tspan x="41.1" y="0">αράφης</tspan></text><text class="cls-7" transform="translate(29.23 66.57)"><tspan x="0" y="0">Διευθύ</tspan><tspan class="cls-19" x="24.04" y="0">νω</tspan><tspan class="cls-12" x="33.1" y="0">ν</tspan><tspan x="36.48" y="0" xml:space="preserve"> σύμβουλος</tspan></text><text class="cls-5" transform="translate(139.6 116.72)"><tspan class="cls-20" x="0" y="0">Λ</tspan><tspan x="5.11" y="0">εωφόρος Νίκης 3,</tspan><tspan x="0" y="10.8">Θεσσαλ</tspan><tspan class="cls-11" x="30.22" y="10.8">ο</tspan><tspan x="35.02" y="10.8">νίκη</tspan></text><text class="cls-7" transform="translate(29.23 100.26)"><tspan x="0" y="0">Κ. </tspan><tspan class="cls-21" x="8.41" y="0">697</tspan><tspan x="22.16" y="0">9 893 9</tspan><tspan class="cls-13" x="50.4" y="0">4</tspan><tspan class="cls-2" x="54.98" y="0">9</tspan></text><text class="cls-6" transform="translate(29.23 116.72)"><tspan x="0" y="0">sarafis.m@capio.com</tspan></text><line class="cls-14" x1="123.73" y1="90.39" x2="123.73" y2="140.17"/><text class="cls-7" transform="translate(139.6 100.26)"><tspan x="0" y="0">Τ. </tspan><tspan class="cls-13" x="8" y="0">23</tspan><tspan class="cls-17" x="17.17" y="0">1</tspan><tspan x="21.35" y="0">0 </tspan><tspan class="cls-13" x="28.42" y="0">3</tspan><tspan x="33" y="0">2 </tspan><tspan class="cls-13" x="40.06" y="0">3</tspan><tspan x="44.65" y="0">2 </tspan><tspan class="cls-13" x="51.71" y="0">3</tspan><tspan x="56.3" y="0">2 </tspan></text><text class="cls-6" transform="translate(29.23 127.87)"><tspan x="0" y="0">www.capio.com</tspan></text><g id="capio_simple"><g class="cls-16"><g class="cls-10"><path class="cls-4" d="m82.75,24.4c0-.43.13-.8.39-1.11.35-.41.87-.62,1.41-.62h10.43c.47,0,.88.17,1.22.5.34.33.51.74.51,1.23v8.15c0,.49-.17.9-.51,1.23-.34.33-.75.5-1.22.5h-10.43c-.54,0-1.06-.21-1.41-.62-.26-.31-.39-.68-.39-1.11v-8.15Zm12.3,8.3v-8.45s-.02-.04-.04-.04h-10.18c-.23,0-.42.19-.42.42v7.7c0,.23.19.42.42.42h10.18s.04-.02.04-.04"/><path class="cls-4" d="m54.23,34.28h-5.26c-.47,0-.88-.17-1.22-.5-.34-.33-.51-.75-.51-1.23v-8.17c0-.49.17-.9.51-1.23.34-.33.75-.5,1.22-.5h5.26v1.54h-5.33v8.55h5.33v1.54Z"/><path class="cls-4" d="m62.81,23.14c-.34-.33-.75-.5-1.22-.5h-5.26v1.54h5.33v2.97h-7.74c-.47,0-.88.17-1.22.5-.34.33-.51.75-.51,1.23v3.66c0,.49.17.9.51,1.23.34.33.75.5,1.22.5h7.67c.48,0,.88-.17,1.22-.5.34-.33.51-.74.51-1.23v-8.17c0-.49-.17-.9-.51-1.23m-1.15,9.59h-7.81v-4.04h7.81v4.04Z"/><path class="cls-4" d="m81.47,34.28h-1.58v-7.57c-.91,0-1.82,0-2.73,0v-2.52h-10.9v4.51h10.9v-.53h1.66c.02.33,0,.58-.03.7-.03.17-.09.3-.09.3-.03.06-.13.31-.37.56-.04.04-.07.07-.11.1-.31.27-.69.41-1.12.41h-10.82v4.04h-1.66v-9.9c0-.49.17-.9.51-1.24.34-.33.75-.5,1.23-.5h10.75c.48,0,.88.17,1.23.5.34.33.51.75.51,1.24v.67h2.63c0,2.99.01,6.24.02,9.23"/><path class="cls-4" d="m80.63,22.64h0c.46,0,.83.37.83.83v.26c0,.46-.37.83-.83.83s-.83-.37-.83-.83v-.26c0-.46.37-.83.83-.83"/></g></g></g><g id="capio_icon"><g class="cls-3"><g class="cls-18"><path class="cls-4" d="m29.23,24.47c0-.42.13-.78.38-1.09.34-.4.85-.61,1.38-.61h10.22c.46,0,.86.16,1.2.49.33.33.5.73.5,1.21v7.99c0,.48-.17.88-.5,1.21-.33.33-.73.49-1.2.49h-10.22c-.53,0-1.04-.21-1.38-.61-.26-.3-.38-.66-.38-1.08v-7.99Zm12.05,8.13v-8.28s-.02-.04-.04-.04h-9.98c-.23,0-.41.18-.41.41v7.55c0,.23.18.41.41.41h9.98s.04-.02.04-.04"/><path class="cls-4" d="m37.8,27.23c0-.15.05-.27.15-.37.1-.1.23-.15.37-.15h3.17c.14,0,.27.05.37.15.1.1.15.22.15.37v2.46c0,.15-.05.27-.15.37-.1.1-.23.15-.37.15h-3.17c-.14,0-.27-.05-.37-.15-.1-.1-.15-.22-.15-.37v-2.46Z"/><path class="cls-22" d="m35.8,28.46c0,1.1-.9,2-2,2s-2-.9-2-2,.9-2,2-2,2,.9,2,2"/></g></g></g></g></svg>