<?xml version="1.0" encoding="UTF-8"?><svg id="Layer_2" xmlns="http://www.w3.org/2000/svg" xmlns:xlink="http://www.w3.org/1999/xlink" viewBox="0 0 623.62 311.81"><defs><style>.cls-1{letter-spacing:0em;}.cls-2{fill:#6dc067;}.cls-3{fill:#8ccfb7;}.cls-4{fill:#082340;}.cls-4,.cls-5,.cls-6,.cls-7{font-family:CFArmadilloStd-Medium, 'CF Armadillo Std';font-weight:500;}.cls-4,.cls-6,.cls-7{font-size:9px;}.cls-8{stroke:#05233f;stroke-miterlimit:10;stroke-width:.25px;}.cls-8,.cls-9{fill:none;}.cls-10{fill:#fffef9;}.cls-11{letter-spacing:-.08em;}.cls-12{clip-path:url(#clippath-1);}.cls-13{letter-spacing:0em;}.cls-14{letter-spacing:-.04em;}.cls-5{font-size:11px;}.cls-5,.cls-7{fill:#05233f;}.cls-15{clip-path:url(#clippath);}.cls-6{fill:#34b44a;}.cls-16{letter-spacing:-.03em;}.cls-17{letter-spacing:-.02em;}.cls-18{letter-spacing:-.03em;}</style><clipPath id="clippath"><rect class="cls-9" x="43.34" y="253.37" width="145.75" height="34.28"/></clipPath><clipPath id="clippath-1"><rect class="cls-9" x="43.34" y="253.37" width="145.75" height="34.28"/></clipPath></defs><g id="Layer_1-2"><rect class="cls-10" width="623.62" height="311.81"/><text class="cls-6" transform="translate(192.91 268.8)"><tspan x="0" y="0">www.capio.com</tspan></text><text class="cls-4" transform="translate(192.91 278.75)"><tspan x="0" y="0">trade feels good here</tspan></text><text class="cls-7" transform="translate(43.34 59.47)"><tspan class="cls-17" x="0" y="0">Λ</tspan><tspan x="5.11" y="0">εωφόρος Νίκης 3, </tspan><tspan x="0" y="9">Θεσσαλ</tspan><tspan class="cls-13" x="30.22" y="9">ο</tspan><tspan x="35.02" y="9">νίκη, ΤΚ.</tspan><tspan class="cls-13" x="67.22" y="9">5</tspan><tspan x="72.47" y="9">4</tspan><tspan class="cls-13" x="77.89" y="9">6</tspan><tspan class="cls-16" x="83.1" y="9">3</tspan><tspan x="88.25" y="9">2</tspan><tspan class="cls-14" x="0" y="18">Τ</tspan><tspan x="4.32" y="18">ηλ. </tspan><tspan class="cls-16" x="18.23" y="18">23</tspan><tspan class="cls-11" x="28.55" y="18">1</tspan><tspan x="33.25" y="18">0 </tspan><tspan class="cls-18" x="41.2" y="18">3</tspan><tspan class="cls-1" x="46.36" y="18">2 </tspan><tspan class="cls-16" x="54.31" y="18">3</tspan><tspan x="59.46" y="18">2 </tspan><tspan class="cls-16" x="67.41" y="18">3</tspan><tspan x="72.57" y="18">2</tspan></text><text class="cls-5" transform="translate(43.34 49.83)"><tspan x="0" y="0">CAPIO</tspan></text><rect class="cls-2" x="192.91" y="280.88" width="379.65" height="5.48"/><g id="capio_simple"><g class="cls-15"><g class="cls-12"><path class="cls-3" d="m147.97,258.53c0-1.27.39-2.35,1.16-3.26,1.02-1.2,2.57-1.83,4.15-1.83h30.72c1.4,0,2.59.49,3.6,1.47,1,.98,1.5,2.19,1.5,3.63v24.02c0,1.44-.5,2.65-1.5,3.63-1,.98-2.2,1.47-3.6,1.47h-30.73c-1.58,0-3.13-.63-4.15-1.84-.77-.91-1.16-1.99-1.16-3.26v-24.02Zm36.24,24.45v-24.88c0-.07-.06-.13-.13-.13h-30c-.68,0-1.23.55-1.23,1.23v22.69c0,.68.55,1.23,1.23,1.23h30c.07,0,.13-.06.13-.13"/><path class="cls-3" d="m63.94,287.65h-15.49c-1.4,0-2.6-.49-3.6-1.47-1-.98-1.5-2.2-1.5-3.64v-24.06c0-1.45.5-2.66,1.5-3.64,1.01-.98,2.2-1.47,3.6-1.47h15.49v4.55h-15.7v25.18h15.7v4.55Z"/><path class="cls-3" d="m89.23,254.84c-1-.98-2.2-1.47-3.6-1.47h-15.49v4.55h15.7v8.74h-22.81c-1.4,0-2.6.49-3.6,1.47-1,.98-1.5,2.2-1.5,3.64v10.77c0,1.45.5,2.66,1.5,3.64,1.01.98,2.2,1.47,3.6,1.47h22.59c1.4,0,2.6-.49,3.6-1.47,1.01-.98,1.5-2.19,1.5-3.64v-24.06c0-1.44-.5-2.66-1.5-3.64m-3.39,28.26h-23.01v-11.89h23.01v11.89Z"/><path class="cls-3" d="m144.2,287.65h-4.66v-22.3c-2.68,0-5.35-.01-8.03-.02v-7.41h-32.1v13.29h32.11v-1.56h4.89c.05.97-.03,1.71-.1,2.07-.1.49-.27.89-.27.89-.08.19-.39.92-1.1,1.64-.11.11-.22.21-.33.3-.92.81-2.02,1.21-3.31,1.21h-31.89v11.89h-4.9v-29.17c0-1.44.5-2.66,1.5-3.64,1-.98,2.21-1.47,3.61-1.47h31.68c1.4,0,2.6.49,3.61,1.47,1,.98,1.5,2.2,1.5,3.64v1.97h7.74c.02,8.81.03,18.39.05,27.2"/><path class="cls-3" d="m141.7,253.37h0c1.35,0,2.45,1.1,2.45,2.45v.77c0,1.35-1.1,2.45-2.45,2.45s-2.45-1.1-2.45-2.45v-.77c0-1.35,1.1-2.45,2.45-2.45"/></g></g></g><polyline class="cls-8" points="446.25 159.11 430.25 159.11 430.25 175.11"/><polyline class="cls-8" points="430.25 228.15 430.25 244.15 446.25 244.15"/><polyline class="cls-8" points="556.56 159.11 572.56 159.11 572.56 175.11"/><polyline class="cls-8" points="572.56 228.15 572.56 244.15 556.56 244.15"/></g></svg>