<?xml version="1.0" encoding="UTF-8"?><svg id="Layer_2" xmlns="http://www.w3.org/2000/svg" xmlns:xlink="http://www.w3.org/1999/xlink" viewBox="0 0 70.34 58.51"><defs><style>.cls-1{fill:#74c26e;}.cls-2{clip-path:url(#clippath-1);}.cls-3{fill:#90d0b9;}.cls-4{clip-path:url(#clippath);}.cls-5{fill:none;}</style><clipPath id="clippath"><rect class="cls-5" width="70.34" height="58.51"/></clipPath><clipPath id="clippath-1"><rect class="cls-5" y="0" width="70.34" height="58.51"/></clipPath></defs><g id="Layer_1-2"><g id="capio_icon"><g class="cls-4"><g class="cls-2"><path class="cls-3" d="m0,8.72C0,6.55.66,4.69,1.98,3.14,3.73,1.08,6.37,0,9.07,0h52.54c2.39,0,4.44.84,6.15,2.51,1.71,1.67,2.57,3.74,2.57,6.21v41.08c0,2.47-.86,4.54-2.57,6.21-1.71,1.67-3.76,2.51-6.15,2.51H9.07c-2.7,0-5.35-1.08-7.1-3.14C.66,53.82,0,51.96,0,49.8V8.72Zm61.98,41.81V7.98c0-.12-.1-.22-.22-.22H10.46c-1.16,0-2.1.94-2.1,2.1v38.8c0,1.16.94,2.1,2.1,2.1h51.3c.12,0,.22-.1.22-.22"/><path class="cls-3" d="m44.06,22.92c0-.76.26-1.4.79-1.91.53-.52,1.16-.77,1.9-.77h16.31c.74,0,1.37.26,1.9.77.53.51.79,1.15.79,1.91v12.66c0,.76-.26,1.4-.79,1.91-.53.52-1.16.77-1.9.77h-16.31c-.74,0-1.37-.26-1.9-.77-.53-.52-.79-1.15-.79-1.91v-12.66Z"/><path class="cls-1" d="m33.78,29.26c0,5.68-4.6,10.28-10.28,10.28s-10.28-4.6-10.28-10.28,4.6-10.28,10.28-10.28,10.28,4.6,10.28,10.28"/></g></g></g></g></svg>