<?xml version="1.0" encoding="UTF-8"?><svg id="Layer_2" xmlns="http://www.w3.org/2000/svg" xmlns:xlink="http://www.w3.org/1999/xlink" viewBox="0 0 595.28 841.89"><defs><style>.cls-1{stroke:#231f20;stroke-miterlimit:10;}.cls-1,.cls-2{fill:none;}.cls-3{letter-spacing:0em;}.cls-4{letter-spacing:-.06em;}.cls-4,.cls-5,.cls-6,.cls-7{font-family:TimesNewRomanPSMT, 'Times New Roman';}.cls-4,.cls-5,.cls-6,.cls-7,.cls-8{fill:#231f20;}.cls-9{letter-spacing:-.04em;}.cls-5,.cls-10,.cls-11{font-size:12px;}.cls-12{letter-spacing:-.05em;}.cls-13,.cls-14,.cls-15{fill:#6dc067;}.cls-16{letter-spacing:0em;}.cls-17{clip-path:url(#clippath-2);}.cls-18,.cls-19{fill:#34b44a;}.cls-20{fill:#8ccfb7;}.cls-21{fill:#082340;}.cls-21,.cls-14{font-size:9px;}.cls-21,.cls-14,.cls-19,.cls-10,.cls-15{font-family:CFArmadilloStd-Medium, 'CF Armadillo Std';font-weight:500;}.cls-22{fill:#fffef9;}.cls-23{letter-spacing:-.08em;}.cls-24{clip-path:url(#clippath-1);}.cls-7{letter-spacing:-.07em;}.cls-25{letter-spacing:0em;}.cls-26{letter-spacing:-.07em;}.cls-27{letter-spacing:-.05em;}.cls-28{clip-path:url(#clippath);}.cls-29{clip-path:url(#clippath-3);}.cls-30{letter-spacing:-.03em;}.cls-31{letter-spacing:-.02em;}.cls-32{letter-spacing:-.01em;}.cls-33{letter-spacing:-.06em;}.cls-34{fill:#6ec068;}.cls-35{letter-spacing:-.03em;}</style><clipPath id="clippath"><rect class="cls-2" x="59" y="69.11" width="145.75" height="34.28"/></clipPath><clipPath id="clippath-1"><rect class="cls-2" x="59" y="69.11" width="145.75" height="34.28"/></clipPath><clipPath id="clippath-2"><rect class="cls-2" x="56.16" y="758.49" width="43.89" height="36.51"/></clipPath><clipPath id="clippath-3"><rect class="cls-2" x="56.16" y="758.49" width="43.89" height="36.51"/></clipPath></defs><g id="Layer_1-2"><rect class="cls-22" width="595.28" height="841.89"/><text class="cls-14" transform="translate(59 61.83)"><tspan x="0" y="0">www.capio.com</tspan></text><text class="cls-21" transform="translate(117.65 116.01)"><tspan x="0" y="0">trade feels good here</tspan></text><text class="cls-14" transform="translate(104.96 774.1)"><tspan class="cls-31" x="0" y="0">Λ</tspan><tspan x="5.11" y="0">εωφόρος Νίκης 3, </tspan><tspan x="0" y="10.8">Θεσσαλ</tspan><tspan class="cls-25" x="30.22" y="10.8">ο</tspan><tspan x="35.02" y="10.8">νίκη, ΤΚ.</tspan><tspan class="cls-25" x="67.22" y="10.8">5</tspan><tspan x="72.47" y="10.8">4</tspan><tspan class="cls-25" x="77.89" y="10.8">6</tspan><tspan class="cls-30" x="83.1" y="10.8">3</tspan><tspan x="88.25" y="10.8">2</tspan></text><text class="cls-14" transform="translate(219.86 784.89)"><tspan x="0" y="0">Τ. </tspan><tspan class="cls-30" x="9" y="0">23</tspan><tspan class="cls-23" x="19.31" y="0">1</tspan><tspan class="cls-3" x="24.02" y="0">0 </tspan><tspan class="cls-30" x="31.97" y="0">3</tspan><tspan x="37.12" y="0">2 </tspan><tspan class="cls-35" x="45.07" y="0">3</tspan><tspan class="cls-3" x="50.23" y="0">2 </tspan><tspan class="cls-30" x="58.18" y="0">3</tspan><tspan x="63.33" y="0">2 </tspan></text><text class="cls-14" transform="translate(411.47 784.9)"><tspan x="0" y="0">Αρ. ΓΕΜΗ: 026</tspan><tspan class="cls-27" x="57.57" y="0">4</tspan><tspan class="cls-26" x="62.55" y="0">1</tspan><tspan x="67.37" y="0">98</tspan><tspan class="cls-12" x="78.09" y="0">0</tspan><tspan class="cls-23" x="83.07" y="0">1</tspan><tspan class="cls-27" x="87.78" y="0">0</tspan><tspan class="cls-23" x="92.75" y="0">1</tspan><tspan x="97.46" y="0">0</tspan></text><text class="cls-14" transform="translate(324.23 784.9)"><tspan class="cls-31" x="0" y="0">Α</tspan><tspan x="5.26" y="0">ΦΜ: </tspan><tspan class="cls-33" x="23.4" y="0">1</tspan><tspan class="cls-30" x="28.29" y="0">3</tspan><tspan class="cls-9" x="33.44" y="0">24</tspan><tspan class="cls-31" x="43.6" y="0">7</tspan><tspan x="48.84" y="0">99</tspan><tspan class="cls-31" x="59.43" y="0">9</tspan><tspan x="64.54" y="0">7</tspan></text><rect class="cls-18" x="-255.53" y="428.87" width="634.31" height="5.26" transform="translate(493.13 369.87) rotate(90)"/><g id="capio_simple"><g class="cls-28"><g class="cls-24"><path class="cls-20" d="m163.63,74.27c0-1.27.39-2.35,1.16-3.26,1.02-1.2,2.57-1.83,4.15-1.83h30.72c1.4,0,2.59.49,3.6,1.47,1,.98,1.5,2.19,1.5,3.63v24.02c0,1.44-.5,2.65-1.5,3.63-1,.98-2.2,1.47-3.6,1.47h-30.73c-1.58,0-3.13-.63-4.15-1.84-.77-.91-1.16-1.99-1.16-3.26v-24.02Zm36.24,24.45v-24.88c0-.07-.06-.13-.13-.13h-30c-.68,0-1.23.55-1.23,1.23v22.69c0,.68.55,1.23,1.23,1.23h30c.07,0,.13-.06.13-.13"/><path class="cls-20" d="m79.6,103.39h-15.49c-1.4,0-2.6-.49-3.6-1.47-1-.98-1.5-2.2-1.5-3.64v-24.06c0-1.45.5-2.66,1.5-3.64,1.01-.98,2.2-1.47,3.6-1.47h15.49v4.55h-15.7v25.18h15.7v4.55Z"/><path class="cls-20" d="m104.88,70.58c-1-.98-2.2-1.47-3.6-1.47h-15.49v4.55h15.7v8.74h-22.81c-1.4,0-2.6.49-3.6,1.47-1,.98-1.5,2.2-1.5,3.64v10.77c0,1.45.5,2.66,1.5,3.64,1.01.98,2.2,1.47,3.6,1.47h22.59c1.4,0,2.6-.49,3.6-1.47,1.01-.98,1.5-2.19,1.5-3.64v-24.06c0-1.44-.5-2.66-1.5-3.64m-3.39,28.26h-23.01v-11.89h23.01v11.89Z"/><path class="cls-20" d="m159.86,103.39h-4.66v-22.3c-2.68,0-5.35-.01-8.03-.02v-7.41h-32.1v13.29h32.11v-1.56h4.89c.05.97-.03,1.71-.1,2.07-.1.49-.27.89-.27.89-.08.19-.39.92-1.1,1.64-.11.11-.22.21-.33.3-.92.81-2.02,1.21-3.31,1.21h-31.89v11.89h-4.9v-29.17c0-1.44.5-2.66,1.5-3.64,1-.98,2.21-1.47,3.61-1.47h31.68c1.4,0,2.6.49,3.61,1.47,1,.98,1.5,2.2,1.5,3.64v1.97h7.74c.02,8.81.03,18.39.05,27.2"/><path class="cls-20" d="m157.36,69.11h0c1.35,0,2.45,1.1,2.45,2.45v.77c0,1.35-1.1,2.45-2.45,2.45s-2.45-1.1-2.45-2.45v-.77c0-1.35,1.1-2.45,2.45-2.45"/></g></g></g><g id="capio_icon"><g class="cls-17"><g class="cls-29"><path class="cls-20" d="m56.16,763.93c0-1.35.41-2.51,1.23-3.48,1.09-1.28,2.74-1.96,4.43-1.96h32.79c1.49,0,2.77.52,3.84,1.57,1.07,1.04,1.6,2.34,1.6,3.88v25.64c0,1.54-.53,2.83-1.6,3.88-1.07,1.04-2.35,1.56-3.84,1.56h-32.79c-1.69,0-3.34-.67-4.43-1.96-.82-.97-1.23-2.13-1.23-3.48v-25.64Zm38.68,26.09v-26.55c0-.08-.06-.14-.14-.14h-32.01c-.72,0-1.31.59-1.31,1.31v24.21c0,.72.59,1.31,1.31,1.31h32.01c.08,0,.14-.06.14-.14"/><path class="cls-20" d="m83.65,772.79c0-.47.16-.87.49-1.19.33-.32.72-.48,1.18-.48h10.18c.46,0,.85.16,1.18.48.33.32.49.72.49,1.19v7.9c0,.47-.16.87-.49,1.19-.33.32-.72.48-1.18.48h-10.18c-.46,0-.85-.16-1.18-.48-.33-.32-.49-.72-.49-1.19v-7.9Z"/><path class="cls-34" d="m77.24,776.74c0,3.54-2.87,6.42-6.42,6.42s-6.42-2.87-6.42-6.42,2.87-6.42,6.42-6.42,6.42,2.87,6.42,6.42"/></g></g></g><text class="cls-11" transform="translate(80.95 176.14)"><tspan class="cls-15" x="0" y="0">Προς:</tspan><tspan class="cls-19" x="28.76" y="0"> </tspan><tspan class="cls-6" x="32.12" y="0">Αξιότιμο κ.</tspan><tspan class="cls-4" x="87.9" y="0"> </tspan><tspan class="cls-7" x="90.24" y="0">Α</tspan><tspan class="cls-6" x="98.01" y="0">νδρεάδη,</tspan></text><text class="cls-10" transform="translate(377.81 647.31)"><tspan class="cls-13"><tspan x="0" y="0">Με εκτίμηση,</tspan></tspan><tspan class="cls-8"><tspan x="0" y="14.4">Μάρ</tspan><tspan class="cls-32" x="21.98" y="14.4">κ</tspan><tspan x="27.42" y="14.4">ος </tspan><tspan class="cls-16" x="42.66" y="14.4">Σ</tspan><tspan x="49.18" y="14.4">αράφης</tspan></tspan></text><text class="cls-5" transform="translate(115.3 198.62)"><tspan x="0" y="0">Lorem ipsum dolor sit amet, consectetuer adipiscing elit, sed diam nonummy nibh </tspan><tspan x="0" y="14.4">euismod tincidunt ut laoreet dolore magna aliquam erat volutpat. Ut wisi enim ad </tspan><tspan x="0" y="28.8">minim veniam, quis nostrud exerci tation ullamcorper suscipit lobortis nisl ut </tspan><tspan x="0" y="43.2">aliquip ex ea commodo consequat. Duis autem vel eum iriure dolor in hendrerit in </tspan><tspan x="0" y="57.6">vulputate velit esse molestie consequat, vel illum dolore eu feugiat nulla facilisis at </tspan><tspan x="0" y="72">vero eros et accumsan et iusto odio dignissim qui blandit praesent luptatum zzril </tspan><tspan x="0" y="86.4">delenit augue duis dolore te feugait nulla facilisi.Lorem ipsum dolor sit amet, cons </tspan><tspan x="0" y="100.8">ectetuer adipiscing elit, sed diam nonummy nibh euismod tincidunt ut laoreet </tspan><tspan x="0" y="115.2">dolore magna aliquam erat volutpat. Ut wisi enim ad minim veniam, quis nostrud </tspan><tspan x="0" y="129.6">exerci tation ullamcorper suscipit lobortis nisl ut aliquip ex ea commodo consequat.</tspan><tspan x="0" y="144">Lorem ipsum dolor sit amet, consectetuer adipiscing elit, sed diam nonummy nibh </tspan><tspan x="0" y="158.4">euismod tincidunt ut laoreet dolore magna aliquam erat volutpat. Ut wisi enim ad </tspan><tspan x="0" y="172.8">minim veniam, quis nostrud exerci tation ullamcorper suscipit lobortis nisl ut </tspan><tspan x="0" y="187.2">aliquip ex ea commodo consequat. Duis autem vel eum iriure dolor in hendrerit in </tspan><tspan x="0" y="201.6">vulputate velit esse molestie consequat, vel illum dolore eu feugiat nulla facilisis at </tspan><tspan x="0" y="216">vero eros et accumsan et iusto odio dignissim qui blandit praesent luptatum zzril </tspan><tspan x="0" y="230.4">delenit augue duis dolore te feugait nulla facilisi.Lorem ipsum dolor sit amet, cons </tspan><tspan x="0" y="244.8">ectetuer adipiscing elit, sed diam nonummy nibh euismod tincidunt ut laoreet </tspan><tspan x="0" y="259.2">dolore magna aliquam erat volutpat. Ut wisi enim ad minim veniam, quis nostrud </tspan><tspan x="0" y="273.6">exerci tation ullamcorper suscipit lobortis nisl ut aliquip ex ea commodo consequat.</tspan><tspan x="0" y="288">Lorem ipsum dolor sit amet, consectetuer adipiscing elit, sed diam nonummy nibh </tspan><tspan x="0" y="302.4">euismod tincidunt ut laoreet dolore magna aliquam erat volutpat. Ut wisi enim ad </tspan><tspan x="0" y="316.8">minim veniam, quis nostrud exerci tation ullamcorper suscipit lobortis nisl ut </tspan><tspan x="0" y="331.2">aliquip ex ea commodo consequat. Duis autem vel eum iriure dolor in hendrerit in </tspan><tspan x="0" y="345.6">vulputate velit esse molestie consequat, vel illum dolore eu feugiat nulla facilisis at </tspan><tspan x="0" y="360">vero eros et accumsan et iusto odio dignissim qui blandit praesent luptatum zzril </tspan><tspan x="0" y="374.4">delenit augue duis dolore te feugait nulla facilisi.</tspan></text><path class="cls-1" d="m383.15,748.65c17.64-17.38,27.21-42.64,25.52-67.34-2.69,15.33-5.39,30.65-8.08,45.98,21.99-9.12,37.12-32.69,36.26-56.48-.41,8.22-.81,16.6,1.32,24.56,2.13,7.95,7.23,15.55,14.9,18.56-31.31,4.61-62.2,12.15-92.12,22.47,50.91-12.35,104.24-21.71,155.4-10.47"/></g></svg>