<?xml version="1.0" encoding="UTF-8"?><svg id="Layer_2" xmlns="http://www.w3.org/2000/svg" viewBox="0 0 294.56 218.63"><defs><style>.cls-1{fill:#d98869;}.cls-2{isolation:isolate;}</style></defs><g id="Layer_1-2"><g class="cls-2"><g class="cls-2"><path class="cls-1" d="m1.47,176.44c.19,1.52.61,4.48,2.36,7.76,3.81,7.13,10.89,10.06,12.89,10.89,1.77.74,13.62,5.4,25.17-1.19,7.63-4.35,10.72-11.1,12.07-14.13,1.19-2.7,1.99-11.59,1.16-18.88-.45-3.87-5.32-3.96-8.32-3.83-.46.04-.86.17-1.2.39-1.14.74-1.23,2.4-1.26,3.14-.39,7.5-.14,14.99-2.59,19.92-1.53,3.08-3.92,4.78-4.6,5.24-7.57,5.25-20.22,2.65-24.23-4.09-.7-1.17-1.77-3.48-1.63-7.14-.03-18.21-.24-32.8-.35-41.14-.05-3.49-.08-5.88-.07-6.99.02-2.15.4-4.32.83-6.43.03-.19.54-1.37,1.37-2.59.57-.84,1.44-1.82,2.59-2.78,2.46-2.08,6.17-4.03,10.74-3.97,6.3.08,12.98,3.97,14.22,8.89.62,2.45.6,9.37.66,12.41.05,2.22.41,2.66,2.57,2.76,1.66.07,3.32-.05,4.99-.09,3.65-.09,4.39-9.51,2.75-15.8-1.41-5.38-4.56-8.76-5.7-9.96-.59-.62-3.32-3.41-7.91-5.48-2.12-.96-11.13-5.04-21.39-1.08-.31.12-.62.25-.93.38v-21.82h18.16c4.04,0,6.94.19,8.72.57,2.42.59,4.81,1.64,7.15,3.14,2.34,1.51,4.99,4.14,7.95,7.91,2.95,3.77,6.72,9.2,11.29,16.31l7.4,11.64-7.99,12.92c11.98.02,23.97.04,35.95.07l-8.76-13.7,10.81-17.56c5.12-8.26,9.43-14.08,12.93-17.47,3.5-3.4,8.41-5.1,14.73-5.1v53.76s15.59,0,15.59,0v-53.76c5.01,0,9.44,1.32,13.28,3.96,3.84,2.63,8.32,8.31,13.44,17.04l.94,1.57,18.07,29.35c-.94.04-1.88.03-2.82.04-3.5.02-7.01-.06-10.51.02-3.75.08-7.53.36-10.91,2.36-1.82,1.08-3.61,2.45-5.06,4.09-3.17,3.6-5.06,8.06-6.32,12.89-2.67,10.21-2.91,20.66-2.51,31.17.21,5.6.83,11.14,1.99,16.6,2.16,10.2,8,16.14,16.96,18.53,3.65.97,7.37,1.38,11.12,1.4,7.67.05,15.32.02,22.99.02h1.26c-.21-.98-.39-1.82-.56-2.67-.88-4.41-1.76-8.82-2.6-13.23-.15-.8-.43-.99-1.12-.99-9.34.02-18.68.02-28.02,0-3,0-5.88-.72-8.5-2.47-3.31-2.2-5.29-5.54-6.48-9.54-.92-3.07-1.46-6.23-1.44-9.46.03-4.56.05-9.13.39-13.66.21-2.63.79-5.31,1.65-7.77,1.81-5.2,5.56-7.87,10.37-8.78,1.53-.29,3.09-.37,4.65-.39,7-.11,14.01-.07,21.01-.26,4.62-.12,7.67-3.29,8.26-8.06.21-1.74.2-3.42-.02-5.06,3.22,2.54,8.62,6.17,16.05,8.34,3.15.92,27.48,7.6,43.71-8.87,14.72-14.93,10.39-36.35,10.02-38.07.82-.39,1.61-.84,2.35-1.32,4.35-2.83,7.67-6.92,9.93-12.28,2.27-5.36,3.41-11.12,3.41-17.27,0-6.71-1.28-12.56-3.84-17.56-2.57-4.99-6.21-8.78-10.94-11.38-4.73-2.59-9.94-3.89-15.62-3.89-6.44,0-11.86,1.64-16.26,4.92-4.39,3.27-7.45,7.9-9.18,13.84l8.4,1.98c1.49-4.69,3.66-8.1,6.5-10.24,2.84-2.14,6.42-3.21,10.72-3.21,4.95,0,9.09,1.18,12.41,3.55,3.33,2.37,5.66,5.56,7.01,9.56,1.35,4,2.02,8.12,2.02,12.37,0,5.47-.8,10.25-2.39,14.34-1.6,4.09-4.08,7.14-7.45,9.16-3.37,2.03-7.01,3.04-10.93,3.04-4.78,0-8.82-1.38-12.13-4.13-3.31-2.76-5.55-6.85-6.72-12.26l-8.52,2.15c1.78,7,5,12.34,9.64,16.01,5.78,4.57,14.02,5.18,17.02,5.52.38.04.69.07.9.09,2.14,8.68.97,15.62-2.22,20.82-8.48,13.82-37.39,14.83-48.85-1.21-7.93-11.12-5.95-28.01,3.64-38.12,7.46-7.87,17.18-9.14,20.27-9.41,3.34-.73,10.73.85,11.18-3.65-.11-2.62.83-6.21-2.37-7.26-8.44-2.76-18.57-1.4-25.77-7.62-7.4-6.36-6.32-18.74,1.58-24.2,7.9-7.17,20.5-9.98,24.18-20.97,1.12-2.74.51-5.8-1.43-7.54-2.49-2.24-6.88-2.05-9.58.94-6.16,6.81-14.09,11.32-21.55,16.43-2.12-.37-5.15-.71-8.77-.53-3.2.17-8.09.33-13.05,3.1-3.69,2.06-6.57,4.65-8.66,7.76-2.08,3.1-4.78,8.47-8.07,16.1-4.39,10.28-7.95,16.74-10.69,19.35-2.74,2.61-7.88,3.96-15.4,4.07V18.44s-15.59,0-15.59,0v50.31c-7.47,0-12.6-1.37-15.4-4.11-4.7-4.61-5.91-9.25-10.69-19.31-3.87-8.13-8.3-15.01-10.45-17.74-4.16-5.31-14.77-14.26-45-12.54H0s0,118.35,0,118.35c-.02,12.29.17,32.69,1.47,43.06Zm168.27-101.9c4.13-1.67,7.5-3.9,10.11-6.7,2.61-2.79,5.72-8.71,9.32-17.75,3.29-8.2,6.11-13.35,8.46-15.44,1.02-.9,2.25-1.61,3.69-2.13-4.51,11.73,1.53,26.25,14.82,29.46,1.3.48,5.88,1.66,3.64,3.52-14.62,8.32-23.14,21.22-25.16,34.35l-2.95-4.79c-7.21-11.65-14.52-18.49-21.94-20.54Zm-108.47,5c11.36-1.56,19.75-5.22,25.19-10.98,4.83-5.11,7.51-11.28,8.04-18.48,0,0,0,.02,0,.02,3.35,8.31,6.25,13.96,8.7,16.97,2.45,3,6.01,5.5,10.65,7.48-7.52,2.09-14.81,8.94-21.86,20.54l-6,9.69-2.3-3.6c-4.09-6.3-8.42-11.54-12.99-15.73-2.15-1.94-5.3-3.91-9.45-5.89ZM15.66,28.12h37.46c6.89,0,12.34,1.11,16.32,3.35.12.06.25.13.37.21.94.55,1.79,1.17,2.56,1.85,4.07,3.6,6.1,8.21,6.1,13.8,0,3.82-1.05,7.36-3.15,10.62-2.09,3.26-5.16,5.62-9.2,7.1-4.04,1.49-9.63,2.22-16.79,2.22H15.66V28.12Z"/></g></g></g></svg>