<?xml version="1.0" encoding="UTF-8"?><svg id="Layer_2" xmlns="http://www.w3.org/2000/svg" viewBox="0 0 275.51 204.49"><defs><style>.cls-1{isolation:isolate;}.cls-2{fill:#f1b950;}</style></defs><g id="Layer_1-2"><g class="cls-1"><g class="cls-1"><path class="cls-2" d="m1.38,165.04c.18,1.42.57,4.19,2.2,7.25,3.56,6.67,10.19,9.41,12.06,10.19,1.66.69,12.74,5.05,23.55-1.11,7.13-4.07,10.03-10.38,11.29-13.22,1.11-2.53,1.87-10.84,1.08-17.66-.42-3.62-4.97-3.71-7.78-3.59-.43.04-.81.16-1.12.37-1.07.69-1.15,2.25-1.18,2.93-.36,7.02-.13,14.02-2.42,18.63-1.44,2.88-3.67,4.47-4.3,4.91-7.08,4.91-18.91,2.48-22.66-3.82-.65-1.1-1.66-3.26-1.52-6.68-.03-17.04-.22-30.68-.33-38.48-.05-3.26-.08-5.5-.07-6.54.02-2.01.38-4.04.78-6.01.03-.18.51-1.28,1.28-2.42.54-.78,1.35-1.7,2.43-2.6,2.3-1.95,5.77-3.77,10.04-3.72,5.9.08,12.15,3.72,13.3,8.31.58,2.29.56,8.76.62,11.61.05,2.07.38,2.49,2.4,2.58,1.55.07,3.11-.05,4.67-.08,3.42-.08,4.11-8.9,2.57-14.78-1.32-5.04-4.27-8.19-5.34-9.31-.55-.58-3.11-3.19-7.4-5.13-1.98-.9-10.41-4.71-20.01-1.01-.29.12-.58.23-.87.35v-20.41h16.99c3.78,0,6.49.18,8.15.53,2.26.55,4.5,1.54,6.69,2.94,2.19,1.41,4.67,3.88,7.44,7.4,2.76,3.52,6.29,8.61,10.56,15.25l6.92,10.89-7.48,12.08c11.21.02,22.42.04,33.63.06l-8.19-12.81,10.11-16.42c4.79-7.72,8.82-13.17,12.09-16.34,3.28-3.18,7.87-4.77,13.78-4.77v50.29h14.59v-50.29c4.69,0,8.83,1.24,12.42,3.71,3.59,2.46,7.78,7.78,12.57,15.94l.88,1.47,16.9,27.45c-.88.04-1.76.03-2.63.04-3.28.02-6.56-.05-9.83.02-3.51.08-7.04.34-10.2,2.21-1.7,1.01-3.38,2.3-4.73,3.82-2.96,3.36-4.73,7.54-5.91,12.06-2.5,9.55-2.73,19.32-2.35,29.16.2,5.24.78,10.42,1.86,15.53,2.02,9.54,7.49,15.1,15.86,17.34,3.42.91,6.89,1.29,10.4,1.31,7.17.05,14.33.02,21.5.02h1.17c-.19-.92-.37-1.7-.52-2.5-.82-4.12-1.65-8.25-2.43-12.38-.14-.74-.4-.93-1.05-.93-8.74.02-17.47.02-26.21,0-2.81,0-5.5-.68-7.95-2.31-3.09-2.06-4.94-5.18-6.07-8.92-.86-2.87-1.37-5.83-1.34-8.85.03-4.26.05-8.54.37-12.77.19-2.46.74-4.97,1.54-7.27,1.7-4.87,5.21-7.36,9.7-8.21,1.43-.27,2.89-.35,4.35-.37,6.55-.1,13.11-.07,19.65-.25,4.32-.12,7.17-3.08,7.72-7.54.2-1.63.18-3.2-.02-4.74,3.01,2.38,8.07,5.77,15.01,7.8,2.94.86,25.71,7.11,40.89-8.3,13.77-13.97,9.72-34,9.37-35.61.77-.37,1.5-.78,2.2-1.24,4.07-2.65,7.17-6.47,9.29-11.49,2.13-5.01,3.19-10.4,3.19-16.15,0-6.27-1.2-11.75-3.59-16.42-2.4-4.67-5.81-8.21-10.23-10.64-4.42-2.43-9.3-3.64-14.61-3.64-6.03,0-11.09,1.54-15.21,4.61-4.11,3.06-6.97,7.39-8.59,12.94l7.85,1.85c1.4-4.38,3.42-7.58,6.08-9.57,2.66-2,6-3,10.03-3,4.63,0,8.5,1.11,11.61,3.32,3.12,2.22,5.3,5.21,6.56,8.94,1.26,3.74,1.89,7.59,1.89,11.57,0,5.12-.74,9.59-2.23,13.41-1.5,3.82-3.82,6.68-6.97,8.57-3.15,1.9-6.56,2.84-10.23,2.84-4.47,0-8.25-1.29-11.35-3.86-3.09-2.58-5.19-6.4-6.29-11.47l-7.97,2.01c1.67,6.55,4.68,11.55,9.02,14.98,5.41,4.27,13.11,4.85,15.92,5.16.35.04.65.07.84.08,2,8.12.91,14.61-2.08,19.48-7.93,12.93-34.98,13.87-45.69-1.14-7.42-10.4-5.57-26.2,3.4-35.65,6.98-7.36,16.07-8.54,18.96-8.8,3.12-.68,10.03.79,10.46-3.42-.1-2.45.78-5.8-2.22-6.79-7.89-2.58-17.37-1.31-24.11-7.12-6.92-5.95-5.91-17.53,1.47-22.63,7.39-6.7,19.18-9.34,22.62-19.62,1.05-2.56.48-5.42-1.34-7.05-2.33-2.1-6.44-1.91-8.96.88-5.77,6.37-13.18,10.59-20.15,15.37-1.98-.34-4.81-.67-8.21-.49-2.99.16-7.57.31-12.21,2.9-3.45,1.93-6.14,4.35-8.1,7.25-1.95,2.9-4.47,7.92-7.55,15.06-4.11,9.62-7.44,15.65-10,18.1-2.56,2.44-7.37,3.71-14.4,3.81V17.25h-14.59v47.05c-6.99,0-11.78-1.28-14.4-3.85-4.4-4.31-5.53-8.65-10-18.06-3.62-7.6-7.77-14.04-9.77-16.6-3.89-4.96-13.82-13.34-42.09-11.73H0v110.7c-.02,11.49.16,30.58,1.37,40.27Zm157.39-95.31c3.86-1.56,7.02-3.65,9.46-6.26,2.44-2.61,5.35-8.15,8.72-16.6,3.08-7.67,5.71-12.48,7.92-14.44.95-.84,2.1-1.5,3.45-1.99-4.22,10.97,1.44,24.55,13.86,27.55,1.21.45,5.5,1.55,3.41,3.29-13.67,7.78-21.64,19.85-23.53,32.13l-2.76-4.48c-6.74-10.89-13.58-17.3-20.52-19.21Zm-101.45,4.68c10.63-1.46,18.47-4.88,23.56-10.27,4.51-4.78,7.02-10.55,7.52-17.29,0,0,0,.02,0,.02,3.13,7.77,5.84,13.06,8.14,15.87,2.3,2.81,5.62,5.14,9.97,6.99-7.03,1.96-13.85,8.36-20.44,19.21l-5.61,9.07-2.15-3.37c-3.82-5.89-7.88-10.79-12.15-14.72-2.01-1.81-4.96-3.65-8.84-5.51ZM14.65,26.3h35.04c6.45,0,11.54,1.04,15.26,3.13.12.05.23.12.35.19.88.51,1.67,1.1,2.4,1.74,3.81,3.37,5.7,7.68,5.7,12.91,0,3.58-.98,6.89-2.95,9.93-1.96,3.05-4.83,5.26-8.61,6.64-3.78,1.39-9.01,2.08-15.71,2.08H14.65V26.3Z"/></g></g></g></svg>