<?xml version="1.0" encoding="UTF-8"?><svg id="Layer_2" xmlns="http://www.w3.org/2000/svg" xmlns:xlink="http://www.w3.org/1999/xlink" viewBox="0 0 307.05 157.26"><defs><style>.cls-1{clip-path:url(#clippath-2);}.cls-2{fill:#8ccfb7;}.cls-3{clip-path:url(#clippath-1);}.cls-4{clip-path:url(#clippath);}.cls-5{fill:none;}.cls-6{clip-path:url(#clippath-3);}.cls-7{fill:#6ec068;}</style><clipPath id="clippath"><rect class="cls-5" y="85.04" width="307.05" height="72.22"/></clipPath><clipPath id="clippath-1"><rect class="cls-5" y="85.04" width="307.05" height="72.22"/></clipPath><clipPath id="clippath-2"><rect class="cls-5" x="110.46" width="86.13" height="71.65"/></clipPath><clipPath id="clippath-3"><rect class="cls-5" x="110.46" y="0" width="86.13" height="71.65"/></clipPath></defs><g id="Layer_1-2"><g><g id="capio_simple"><g class="cls-4"><g class="cls-3"><path class="cls-2" d="m220.41,95.91c0-2.67.81-4.96,2.44-6.87,2.16-2.54,5.41-3.86,8.74-3.86h64.73c2.94,0,5.46,1.03,7.58,3.09,2.11,2.06,3.16,4.61,3.16,7.65v50.6c0,3.04-1.06,5.59-3.16,7.65-2.11,2.06-4.63,3.09-7.58,3.09h-64.73c-3.33,0-6.59-1.33-8.74-3.87-1.62-1.91-2.43-4.2-2.43-6.87v-50.6Zm76.34,51.51v-52.42c0-.15-.12-.27-.27-.27h-63.19c-1.43,0-2.58,1.16-2.58,2.58v47.79c0,1.43,1.16,2.58,2.58,2.58h63.19c.15,0,.27-.12.27-.27"/><path class="cls-2" d="m43.4,157.25H10.76c-2.95,0-5.47-1.03-7.59-3.09C1.06,152.09,0,149.53,0,146.49v-50.69c0-3.05,1.06-5.6,3.17-7.66,2.12-2.06,4.64-3.09,7.59-3.09h32.64v9.58H10.32v53.05h33.08v9.58Z"/><path class="cls-2" d="m96.66,88.13c-2.11-2.06-4.64-3.09-7.59-3.09h-32.64v9.58h33.08v18.42h-48.04c-2.95,0-5.47,1.03-7.59,3.1-2.11,2.06-3.17,4.63-3.17,7.66v22.69c0,3.05,1.06,5.6,3.17,7.66,2.12,2.06,4.64,3.09,7.59,3.09h47.6c2.95,0,5.48-1.03,7.59-3.09,2.12-2.06,3.17-4.61,3.17-7.66v-50.69c0-3.04-1.05-5.6-3.17-7.66m-7.15,59.54h-48.48v-25.05h48.48v25.05Z"/><path class="cls-2" d="m212.48,157.25h-9.82v-46.97c-5.64-.01-11.28-.03-16.92-.04v-15.61h-67.62v28h67.64v-3.29h10.3c.11,2.04-.06,3.6-.21,4.36-.21,1.03-.56,1.87-.56,1.87-.17.4-.82,1.94-2.32,3.45-.23.23-.46.44-.7.63-1.94,1.71-4.26,2.55-6.97,2.55h-67.18v25.05h-10.32v-61.45c0-3.03,1.05-5.6,3.16-7.67,2.11-2.06,4.66-3.1,7.6-3.1h66.74c2.95,0,5.48,1.03,7.6,3.1,2.11,2.06,3.16,4.63,3.16,7.67v4.15h16.31c.04,18.56.07,38.73.11,57.29"/><path class="cls-2" d="m207.21,85.04h0c2.85,0,5.16,2.31,5.16,5.16v1.62c0,2.85-2.31,5.16-5.16,5.16s-5.16-2.31-5.16-5.16v-1.62c0-2.85,2.31-5.16,5.16-5.16"/></g></g></g><g id="capio_icon"><g class="cls-1"><g class="cls-6"><path class="cls-2" d="m110.46,10.67c0-2.65.81-4.93,2.42-6.83C115.02,1.32,118.26,0,121.57,0h64.34c2.92,0,5.43,1.02,7.53,3.07,2.1,2.05,3.14,4.58,3.14,7.6v50.3c0,3.02-1.05,5.56-3.14,7.6-2.1,2.05-4.61,3.07-7.53,3.07h-64.35c-3.31,0-6.55-1.32-8.69-3.85-1.62-1.9-2.42-4.18-2.42-6.83V10.67Zm75.89,51.2V9.77c0-.15-.12-.27-.27-.27h-62.82c-1.42,0-2.57,1.15-2.57,2.57v47.51c0,1.42,1.15,2.57,2.57,2.57h62.82c.15,0,.27-.12.27-.27"/><path class="cls-2" d="m164.41,28.07c0-.93.32-1.71.97-2.34.65-.63,1.42-.95,2.32-.95h19.97c.9,0,1.68.31,2.32.95.65.63.97,1.41.97,2.34v15.51c0,.93-.32,1.71-.97,2.34-.65.63-1.42.95-2.32.95h-19.97c-.9,0-1.68-.31-2.32-.95-.65-.63-.97-1.41-.97-2.34v-15.51Z"/><path class="cls-7" d="m151.83,35.83c0,6.95-5.64,12.59-12.59,12.59s-12.59-5.64-12.59-12.59,5.64-12.59,12.59-12.59,12.59,5.64,12.59,12.59"/></g></g></g></g></g></svg>