<?xml version="1.0" encoding="UTF-8"?><svg id="Layer_2" xmlns="http://www.w3.org/2000/svg" viewBox="0 0 1827.67 976.14"><defs><style>.cls-1{fill:none;stroke:#686ba6;stroke-miterlimit:10;stroke-width:1.11px;}</style></defs><g id="Layer_1-2"><path class="cls-1" d="m.31,975.57c58.76-39.68,130.97-101.86,180-197,34.95-67.83,38.22-113.77,71-122,57.92-14.53,96.65,107.6,231.86,187.77,127.03,75.31,298.56,88.49,350.14,23.23,10.01-12.66,16.81-44.7,30.43-108.77,17.74-83.49,15.13-94.98,29.04-131.66,15.9-41.93,51.65-72.58,90.95-89.24,52.26-22.15,98.95-23.87,124.44-22.43,205.25,11.63,266.4,62.82,366.14,50.1,169.77-21.66,271.78-205.58,289.17-236.93,79.7-143.69,64.72-282.5,57.83-328.07"/><path class="cls-1" d="m1821.28.54c6.67,45.24,15.21,165.66-49.05,291.11-4.88,9.52-9.9,19.25-16.07,28.52-15.68,23.58-77.58,124.13-175.79,184.03-34.11,20.61-72.5,36.48-114.82,42.98-96.6,14.84-157.21-27.01-341.27-31-4.06-.09-8.17-.14-12.35-.08-24.31.37-68.5,4.33-117.8,27.62-37.51,17.72-71.69,48.93-88.16,89.79-3.37,8.4-5.85,15.48-8.07,22.38-7.34,22.85-11,43.44-25.69,103.11-14.7,59.92-23.28,89.22-34.34,100.75-56.04,58.41-223.24,46.27-349.01-24.15-132.7-74.31-174.22-187.23-233.54-170.81-3.44.95-6.58,2.27-9.46,3.99-24.79,14.86-32.17,57.03-63.54,115.38C132.48,876.86,60.43,938.26.31,975.57"/><path class="cls-1" d="m1821.25.5c6.93,48.08,10.49,165.86-55.6,284.1-5.09,9.11-10.17,18.55-16.82,27.1-18.59,23.89-81.98,117.1-178.58,174-33.98,20.02-72.04,35.61-113.46,43.08-95.61,17.25-156.33-17.66-329.42-12.71-3.84.11-7.74.27-11.67.64-23.21,2.2-64.85,8.43-111.16,32.81-35.73,18.81-68.32,50.54-85.37,90.34-3.46,8.15-6.08,15.07-8.57,21.75-8.45,22.62-14.08,42.05-29.9,97.57-15.8,55.76-26.08,82.3-38.26,92.73-60.19,51.53-223.34,40.45-347.88-25.07-130.16-68.48-174.49-172.21-235.22-153.85-3.38,1.02-6.49,2.34-9.35,4.07-25.31,15.34-34.15,56.55-65.65,112.66C133.66,880,61.79,940.63.3,975.57"/><path class="cls-1" d="m1821.22.47c7.19,50.92,5.66,166.07-62.14,277.09-5.32,8.7-10.53,17.81-17.57,25.68-21.69,24.25-86.52,109.86-181.38,163.97-33.91,19.34-71.57,34.75-112.1,43.19-94.63,19.7-155.65-8.22-317.57,5.58-3.63.31-7.31.69-10.99,1.36-22.19,4.06-61.2,12.58-104.52,38-33.97,19.93-65.04,52.12-82.58,90.89-3.57,7.9-6.31,14.66-9.08,21.13-9.59,22.39-17.16,40.65-34.11,92.04-16.89,51.61-28.82,75.38-42.18,84.71-64.04,44.7-223.4,34.61-346.75-25.99-127.58-62.67-174.76-157.24-236.89-136.9-3.32,1.09-6.4,2.41-9.24,4.15-25.87,15.77-36.15,56.06-67.76,109.95C134.81,883.15,63.15,943,.3,975.57"/><path class="cls-1" d="m1821.2.44c7.45,53.77.7,166.28-68.69,270.07-5.55,8.29-10.98,17.03-18.32,24.26-24.96,24.58-91.08,102.59-184.18,153.95-33.83,18.66-71.11,33.91-110.74,43.29-93.65,22.17-155.18,1.39-305.72,23.88-3.42.51-6.89,1.12-10.31,2.09-21.23,5.98-57.55,16.79-97.88,43.19-32.22,21.09-61.69,53.72-79.79,91.44-3.67,7.65-6.56,14.25-9.59,20.5-10.76,22.17-20.24,39.25-38.32,86.5-17.98,47.45-31.51,68.48-46.1,76.68-67.6,38.01-223.43,28.74-345.63-26.91-124.96-56.9-175.04-142.32-238.57-119.94-3.26,1.15-6.31,2.49-9.13,4.22-26.4,16.24-38.17,55.57-69.88,107.23-52.41,85.39-123.85,144.48-188.06,174.68"/><path class="cls-1" d="m1821.17.41c7.71,56.61-4.39,166.46-75.23,263.06-5.78,7.89-11.49,16.21-19.07,22.84-28.4,24.85-95.65,95.3-186.97,143.92-33.77,17.98-70.64,33.08-109.38,43.39-92.68,24.67-154.92,11.25-293.87,42.17-3.22.72-6.48,1.57-9.63,2.81-20.34,7.98-53.9,21.07-91.25,48.39-30.48,22.3-58.34,55.32-77,91.99-3.77,7.4-6.81,13.84-10.09,19.87-11.95,21.95-23.42,37.82-42.53,80.96-19.17,43.25-34.14,61.61-50.02,68.66-70.94,31.52-223.41,22.84-344.5-27.83-122.3-51.17-175.32-127.45-240.25-102.98-3.2,1.21-6.22,2.56-9.02,4.3-26.92,16.71-40.2,55.08-71.99,104.52-53.32,82.94-124.5,141.26-190.08,169.09"/><path class="cls-1" d="m1821.14.38c7.97,59.45-9.62,166.61-81.78,256.05-6.03,7.48-12.05,15.34-19.82,21.41-31.98,25-100.24,87.98-189.77,133.89-33.71,17.29-70.18,32.26-108.02,43.49-91.7,27.21-154.85,21.45-282.02,60.46-3.03.93-6.07,2.04-8.95,3.53-19.47,10.08-50.24,25.41-84.61,53.58-28.73,23.55-54.99,56.93-74.21,92.54-3.86,7.15-7.07,13.43-10.6,19.25-13.17,21.72-26.51,36.41-46.75,75.42s-36.75,54.78-53.93,60.64c-74.12,25.24-223.36,16.9-343.37-28.74-119.59-45.49-175.62-112.64-241.93-86.03-3.14,1.26-6.13,2.64-8.91,4.38-27.45,17.18-42.25,54.57-74.1,101.8-54.26,80.48-125.16,138.05-192.1,163.51"/><path class="cls-1" d="m1821.11.35c8.23,62.3-14.99,166.7-88.33,249.04-6.29,7.07-12.65,14.44-20.57,19.99-35.68,25.01-104.85,80.64-192.57,123.87-33.65,16.59-69.71,31.46-106.66,43.6-90.71,29.78-154.91,32.1-270.17,78.76-2.84,1.15-5.66,2.52-8.27,4.25-18.6,12.29-46.55,29.81-77.97,58.77-26.97,24.85-51.63,58.53-71.42,93.09-3.95,6.9-7.34,13.02-11.1,18.62-14.43,21.48-29.6,35-50.96,69.88-21.37,34.91-39.34,48.01-57.85,52.61-77.21,19.19-223.27,10.92-342.24-29.66-116.86-39.86-175.93-97.88-243.6-69.07-3.08,1.31-6.04,2.72-8.8,4.46-27.97,17.65-44.33,54.06-76.21,99.09-55.23,78.01-125.81,134.84-194.11,157.93"/><path class="cls-1" d="m1821.08.32c8.5,65.14-20.52,166.71-94.87,242.03-6.57,6.65-13.26,13.5-21.32,18.57-39.5,24.84-109.48,73.27-195.37,113.84-33.6,15.87-69.24,30.68-105.3,43.7-89.72,32.39-155,43.29-258.32,97.05-2.66,1.38-5.24,3.03-7.59,4.97-17.68,14.61-42.82,34.29-71.33,63.96-25.18,26.2-48.26,60.14-68.63,93.64-4.05,6.66-7.62,12.6-11.61,17.99-15.7,21.22-32.68,33.58-55.17,64.34-22.47,30.73-41.92,41.29-61.77,44.59-80.28,13.35-223.15,4.88-341.11-30.58-114.08-34.29-176.27-83.17-245.28-52.11-3.03,1.36-5.95,2.79-8.69,4.54-28.5,18.13-46.42,53.53-78.32,96.37-56.23,75.52-126.46,131.63-196.13,152.35"/><path class="cls-1" d="m1821.05.29c8.76,67.98-26.18,166.62-101.42,235.01-6.85,6.23-13.89,12.53-22.07,17.15-43.4,24.48-114.12,65.87-198.16,103.82-33.56,15.15-68.76,29.91-103.94,43.8-88.72,35.03-154.99,55.05-246.47,115.34-2.47,1.63-4.81,3.54-6.91,5.7-16.67,17.03-39.05,38.82-64.69,69.15-23.35,27.61-44.89,61.75-65.84,94.19-4.14,6.41-7.9,12.17-12.12,17.37-17,20.95-35.76,32.17-59.38,58.8s-44.5,34.62-65.69,36.57c-83.39,7.68-223-1.23-339.98-31.5-111.28-28.8-176.63-68.51-246.96-35.16-2.97,1.41-5.86,2.87-8.58,4.62-29.02,18.61-48.54,52.99-80.43,93.66-57.26,73.01-127.12,128.42-198.14,146.77"/><path class="cls-1" d="m1821.02.25c9.02,70.82-31.97,166.41-107.96,228-7.14,5.79-14.52,11.54-22.82,15.73-47.37,23.92-118.77,58.44-200.96,93.79-33.52,14.42-68.28,29.15-102.58,43.9-87.7,37.71-154.7,67.37-234.62,133.64-2.28,1.89-4.36,4.07-6.23,6.42-15.54,19.52-35.21,43.41-58.06,74.35-21.47,29.07-41.52,63.37-63.05,94.73-4.23,6.16-8.19,11.74-12.62,16.74-18.32,20.65-38.83,30.76-63.59,53.27-24.64,22.39-47.1,27.99-69.61,28.55-86.55,2.15-222.83-7.42-338.85-32.42-108.45-23.37-177.02-53.91-248.64-18.2-2.91,1.45-5.76,2.95-8.47,4.7-29.54,19.1-50.67,52.44-82.55,90.95-58.34,70.47-127.77,125.21-200.16,141.19"/><path class="cls-1" d="m1820.99.22c9.28,73.67-37.86,166.04-114.51,220.99-7.45,5.34-15.15,10.51-23.57,14.31-51.39,23.13-123.44,50.98-203.76,83.76-33.49,13.67-67.79,28.41-101.22,44-86.66,40.42-153.97,80.13-222.77,151.93-2.07,2.16-3.9,4.59-5.55,7.14-14.28,22.04-31.3,48.04-51.42,79.54-19.52,30.56-38.14,64.99-60.25,95.28-4.32,5.92-8.48,11.31-13.13,16.11-19.66,20.33-41.89,29.36-67.8,47.73s-49.72,21.39-73.53,20.52c-89.79-3.27-222.64-13.69-337.73-33.34-105.61-18.03-177.44-39.36-250.31-1.24-2.86,1.5-5.67,3.03-8.36,4.78-30.05,19.58-52.82,51.87-84.66,88.23-59.44,67.9-128.42,121.99-202.18,135.61"/><path class="cls-1" d="m1820.96.19c9.54,76.51-43.82,165.51-121.05,213.98-7.76,4.87-15.77,9.47-24.32,12.88-55.45,22.13-128.12,43.48-206.55,73.74-33.46,12.91-67.29,27.68-99.86,44.11-85.6,43.17-152.69,93.13-210.92,170.22-1.85,2.44-3.43,5.11-4.87,7.86-12.9,24.57-27.32,52.69-44.78,84.73s-34.75,66.61-57.46,95.83c-4.41,5.67-8.77,10.87-13.63,15.49-21.02,19.98-44.95,27.97-72.01,42.19-26.78,14.07-52.36,14.82-77.44,12.5-93.11-8.62-222.44-20.07-336.6-34.26-102.76-12.77-177.9-24.87-251.99,15.72-2.81,1.54-5.58,3.1-8.25,4.85-30.57,20.07-55,51.28-86.77,85.52-60.59,65.29-129.07,118.78-204.19,130.03"/><path class="cls-1" d="m1820.93.16c9.8,79.35-49.83,164.79-127.6,206.97-8.08,4.38-16.38,8.41-25.07,11.46-59.51,20.91-132.81,35.95-209.35,63.71-33.44,12.13-66.78,26.96-98.5,44.21-84.51,45.95-150.81,106.13-199.07,188.52-1.6,2.73-2.95,5.63-4.19,8.58-11.41,27.07-23.26,57.35-38.14,89.92s-31.36,68.24-54.67,96.38c-4.5,5.43-9.07,10.42-14.14,14.86-22.39,19.6-48,26.58-76.22,36.65-27.84,9.93-55.02,8.27-81.36,4.48-96.53-13.91-222.25-26.55-335.47-35.17-99.93-7.61-178.4-10.42-253.67,32.67-2.76,1.58-5.49,3.19-8.14,4.93-31.05,20.61-57.19,50.66-88.88,82.8-61.77,62.64-129.73,115.57-206.21,124.44"/><path class="cls-1" d="m1820.9.13c10.06,82.2-55.83,163.89-134.14,199.96-8.4,3.87-16.99,7.33-25.82,10.04-63.57,19.49-137.5,28.38-212.15,53.68-33.42,11.33-66.26,26.25-97.14,44.31-83.39,48.77-148.38,118.91-187.22,206.81-1.33,3.01-2.46,6.14-3.51,9.31-9.84,29.53-19.12,61.99-31.5,95.11-13.14,35.15-27.97,69.87-51.88,96.93-4.58,5.19-9.36,9.97-14.64,14.23-23.77,19.2-51.06,25.22-80.43,31.11-28.91,5.8-57.69,1.74-85.28-3.54-100.03-19.16-222.09-33.16-334.34-36.09-97.11-2.54-178.94,3.97-255.35,49.63-2.71,1.62-5.4,3.26-8.03,5.01-31.57,21.09-59.39,50.02-90.99,80.09-62.99,59.93-130.38,112.36-208.22,118.86"/><path class="cls-1" d="m1820.88.1c10.32,85.04-61.79,162.8-140.69,192.94-8.72,3.33-17.58,6.24-26.57,8.62-67.61,17.87-142.2,20.77-214.95,43.66-33.41,10.51-65.73,25.55-95.78,44.41-82.24,51.62-145.53,131.31-175.37,225.1-1.05,3.29-1.96,6.64-2.83,10.03-8.2,31.93-14.91,66.6-24.86,100.3-10.83,36.67-24.53,71.54-49.09,97.48-4.66,4.95-9.66,9.51-15.15,13.61-25.15,18.76-54.12,23.91-84.65,25.57-29.99,1.73-60.39-4.78-89.2-11.57-103.6-24.39-221.97-39.89-333.21-37.01-94.34,2.44-179.52,18.31-257.02,66.59-2.66,1.66-5.3,3.34-7.91,5.09-32.09,21.57-61.61,49.36-93.1,77.37-64.25,57.16-131.03,109.15-210.24,113.28"/><path class="cls-1" d="m1820.85.07c10.58,87.88-67.65,161.53-147.24,185.93s-165.15,17.7-245.06,40.83c-126,36.47-229.17,151.64-257.94,287.91-17.25,81.73-16.54,181.86-82.34,227.25-52.59,36.28-121.4,17.17-181.97.44-199.4-55.07-424.49-66.95-598.59,50.78C206.97,861.34,119.37,972.97.23,975.58"/></g></svg>