<?xml version="1.0" encoding="UTF-8"?><svg id="Layer_2" xmlns="http://www.w3.org/2000/svg" viewBox="0 0 1657.29 499.68"><defs><style>.cls-1{fill:#b6bf73;}.cls-2{fill:#686ba6;}.cls-3{fill:#d9886a;}</style></defs><g id="Layer_1-2"><path class="cls-3" d="m1444.02,100.84c-18.82,19.72-52.2,20.34-70.29-.82-8.74-9.92-13.6-23.23-12.94-36.43.36-6.58,1.79-12.95,2.59-19.36.85-6.38,1.04-13.05-1.45-19.11,5.69,12.19.56,25.88.3,38.53-.67,28.3,22.34,53.32,51.37,50.56,11.27-.88,22.11-5.67,30.42-13.36h0Z"/><path class="cls-3" d="m1361.92,25.11c6.13,11.19,2.03,24.42,2.66,36.4.41,6.8,2.28,13.48,5.31,19.58,10.29,21.14,33.88,34.66,57.27,28.61,3.99-1.05,8.04-2.69,11.54-4.9,1.96-1.22,3.75-2.66,5.49-4.17-3.76,3.88-8.45,6.86-13.47,8.86-25.75,9.65-52.95-5.3-63.4-29.75-2.52-5.72-3.97-11.92-4.17-18.17-.34-12.23,4.17-24.85-1.23-36.45h0Z"/><path class="cls-3" d="m1361.92,25.11c6.9,10.88,3.17,24.4,5.49,36.32.29,1.22.68,3,1.06,4.16,6.56,21.07,25.29,38.92,47.45,42.08,9.91,1.4,20.79-.44,28.46-7.26-7.9,8.03-20.05,9.95-30.82,8.29-21.97-3.5-40.51-21.58-46.63-42.68-.4-1.22-.71-3.08-.99-4.33-2.04-12.23,2.14-25.24-4.01-36.59h0Z"/><path class="cls-3" d="m1361.92,25.12c3.2,4.55,4.84,10.07,5.53,15.58.71,5.51.79,11.08,2.19,16.34,6.2,22.43,28.45,43.68,51.51,47.79,7.97,1.39,16.94.87,23.38-4.6-6.1,5.98-15.45,6.97-23.57,5.77-23.8-3.32-47.08-25.42-52.72-48.63-2.34-10.85-.19-22.48-6.33-32.24h0Z"/><path class="cls-3" d="m1361.92,25.12c3.26,4.15,5.39,9.15,6.6,14.29,1.23,5.14,1.88,10.39,3.8,15.2,8.79,21.71,33.93,44.83,57.51,48.32,5.07.69,10.74.49,14.89-2.91-8.03,7.11-21.45,3.32-30.32-.34-17.66-7.71-33.78-23.41-41.96-40.85-2.84-6.05-3.6-12.83-4.8-19.22-.93-5.16-2.8-10.11-5.71-14.49h0Z"/><path class="cls-3" d="m1361.92,25.12c3.32,3.78,5.87,8.25,7.67,12.97,1.75,4.69,3.12,9.52,5.48,13.93,10.84,19.41,34.18,40.9,55.43,47.94,4.58,1.34,10.14,2.8,14.39-.15-4.07,3.34-9.94,2.12-14.64,1.03-22.61-6.68-45.52-27.45-56.46-48.17-2.24-4.56-3.49-9.49-5.06-14.27-1.5-4.78-3.83-9.25-6.81-13.28h0Z"/><path class="cls-3" d="m1361.92,25.12c3.39,3.45,6.3,7.39,8.71,11.62,2.36,4.25,4.43,8.6,7.23,12.48,13.06,17.77,34.12,37.02,53.64,47.34,3.57,1.68,9.8,5.05,13.57,3.04-2.06,1.45-4.82.78-7.1.27-21.99-6.72-48.45-30.94-61.3-49.85-2.72-4.08-4.67-8.57-6.84-12.85-2.12-4.33-4.84-8.33-7.91-12.05h0Z"/><path class="cls-3" d="m1361.92,25.12c7.11,6.19,12.43,14.14,18.67,21.1,12.73,13.74,26.72,26.36,41.22,38.21,6.43,5.05,12.85,10.29,20.1,14.12,1.03.44,2.17,1.14,3.32.83-1.14.4-2.36-.21-3.43-.57-7.56-3.35-14.24-8.38-20.87-13.25-14.96-11.48-29.02-24.17-41.42-38.41-6.07-7.26-10.99-15.24-17.6-22.05h0Z"/><path class="cls-3" d="m1361.92,25.12c28.56,23.64,56.63,48.52,83.49,74.06-28.57-23.63-56.62-48.52-83.49-74.06h0Z"/><path class="cls-3" d="m1361.92,25.12c7.54,5.75,16.08,9.64,24,14.82,15.61,10.62,29.87,23.09,43.05,36.58,5.62,6.01,11.43,12.02,15.67,19.12.49,1.02,1.25,2.17.94,3.34.21-1.17-.63-2.23-1.19-3.2-4.68-6.74-10.67-12.47-16.45-18.25-13.5-12.99-27.68-25.4-42.84-36.41-7.64-5.38-16.2-9.68-23.19-16h0Z"/><path class="cls-3" d="m1361.92,25.12c4.06,2.6,8.36,4.81,12.93,6.35,4.52,1.6,9.23,2.98,13.59,5.22,20.3,10.54,47.27,34.04,56.75,55.01.79,2.19,1.83,4.87.57,7.06,1.67-3.85-2.62-9.84-4.66-13.07-12.54-17.99-34.23-36.95-53.32-47.73-4.17-2.35-8.74-3.84-13.26-5.64-4.5-1.84-8.77-4.26-12.61-7.2h0Z"/><path class="cls-3" d="m1361.92,25.12c4.36,2.48,9.09,4.21,14.04,5.04,4.94.91,10.02,1.49,14.79,3.23,21.69,8.26,45.05,29.18,54.38,50.55,1.67,4.5,3.77,10.23.81,14.61,2.55-4.52.23-9.91-1.65-14.25-9.91-20.39-33.19-40.88-54.03-49.57-4.64-1.88-9.6-2.59-14.49-3.68-4.93-1.13-9.7-3.1-13.85-5.94h0Z"/><path class="cls-3" d="m1361.92,25.12c4.7,2.37,9.86,3.55,15.11,3.72,5.26.26,10.6.09,15.8,1.27,24.02,6.12,48.87,28.72,55.15,52.94,1.11,5.03,1.54,11.05-1.87,15.3,3.02-4.44,2.34-10.18.98-15.08-6.95-23.18-31.55-45.2-54.6-51.77-5.06-1.33-10.33-1.3-15.54-1.75-5.26-.46-10.51-1.89-15.04-4.63h0Z"/><path class="cls-3" d="m1361.92,25.12c10.49,4.96,21.72.74,32.79,1.81,24.2,3.18,47.43,23.78,54.12,47.17,2.24,7.82,2.88,17.37-2.55,24.04,5.29-7.55,3.61-17.49.77-25.65-8.13-21.72-29.48-40.35-52.52-44.14-5.38-.79-10.9-.04-16.45.08-5.54.14-11.25-.69-16.17-3.32h0Z"/><path class="cls-3" d="m1361.91,25.13c11.38,4.48,22.88-1.18,34.54-1.23,3.68-.08,7.42.54,11,1.39,19.26,5.08,35.94,20,42.27,39,3.69,10.87,4.5,24.36-3.27,33.66,3.49-4.71,4.98-10.52,5.04-16.29-.24-28.85-26.49-54.92-55.05-56.32-11.35-.25-23.56,5.04-34.53-.2h0Z"/><path class="cls-3" d="m1361.91,25.13c12.27,3.9,24.01-2.98,36.21-4.14,7.79-.84,15.72.73,22.94,3.67,18.48,7.69,31.4,24.72,33.34,44.7.07,1.28.27,3.38.21,4.66,0,0-.02,2.33-.02,2.33-.13,1.29-.22,3.37-.49,4.64-.93,6.12-3.44,12.05-7.48,16.75,1.8-2.43,3.36-5.17,4.45-8.01,2.13-5.69,2.79-11.93,2.3-17.97-1.73-22.41-17.84-41.66-39.43-47.69-5.08-1.4-10.43-2.06-15.7-1.65-11.94.84-24.41,7.41-36.34,2.72h0Z"/><path class="cls-3" d="m1361.91,25.13c13.13,3.25,25.14-4.69,37.83-6.94,13.84-2.59,28.63,1.67,39.43,10.6.5.38,1.43,1.19,1.87,1.63,0,0,1.8,1.71,1.8,1.71l1.67,1.84c.97.98,2.24,2.77,3.11,3.86.45.69,1.6,2.45,2.04,3.12.38.69,1.39,2.54,1.79,3.26.55,1.28,1.54,3.22,1.97,4.54,4.68,12.21,5.03,26.38-.15,38.47-1.54,3.78-3.85,7.22-6.47,10.32,10.05-12.93,11.12-30.83,5.95-45.95-.29-.76-1-2.63-1.28-3.36-.32-.68-1.19-2.56-1.52-3.26-.39-.7-1.38-2.46-1.75-3.13-.42-.63-1.55-2.33-1.99-2.98-.49-.61-1.75-2.22-2.22-2.81-.52-.57-1.9-2.05-2.43-2.63,0,0-1.75-1.63-1.75-1.63-10.58-9.68-25.58-14.52-39.82-12.17-12.49,1.92-25.21,9.59-38.08,5.53h0Z"/><path class="cls-1" d="m1343.69,169.03c18.29,26.62,22.96,59.47,29.43,90.37,4.86,23.17,10.62,46.66,24.04,66.41,22.49,33.33,62.88,48.67,101.57,52.85,31.33,4.17,63.97,5.86,94.4-4.14-14.93,5.65-30.93,8.14-46.87,8.89-23.99.7-47.98-1.54-71.56-5.98-40.06-8.47-76.23-31.93-91.35-71.28-18.04-44.39-13.8-95.73-39.65-137.13h0Z"/><path class="cls-1" d="m1343.69,169.02c18.66,25.15,24.11,56.88,31.55,86.55,5.56,22.26,12.44,44.66,26.66,62.93,21.5,27.32,55.32,41.64,88.63,48.44,33.74,6.58,68.69,14.51,102.98,7.43-30.25,7.68-61.87,2.46-92.08-2.79-37.96-5.87-77.6-19.91-101.95-51.21-9.57-12.4-16.02-26.9-20.61-41.77-11.43-36.6-13.18-77.05-35.17-109.58h0Z"/><path class="cls-1" d="m1343.7,169.02c19.1,23.72,25.38,54.39,33.9,82.85,6.36,21.35,14.41,42.7,29.54,59.33,25.28,27.99,62.79,40.16,98.49,48.71,28.91,7.25,58.12,16.61,88.27,14.3-30.08,3.65-59.85-5.25-88.86-11.96-36.43-8.01-74.56-20.41-100.19-49.01-15.36-16.96-23.61-39.06-29.57-60.7-8.04-28.7-13.59-59.04-31.59-83.52h0Z"/><path class="cls-1" d="m1343.7,169.02c19.6,22.28,26.81,52,36.54,79.26,13.63,39.17,30.87,61.27,68.29,80.07,19.56,9.92,40.61,16.03,61.48,22.56,27.8,8.73,54.9,21.13,84.28,23.16,0,0-5.48-.2-5.48-.2,0,0-5.47-.48-5.47-.48,0,0-5.44-.76-5.44-.76-23.51-3.9-45.91-12.58-68.6-19.42-35.04-10-71.65-21.2-98.57-47.06-16.17-15.42-25.85-36.16-32.74-57.08-9.27-27.55-15.72-56.92-34.27-80.05h0Z"/><path class="cls-1" d="m1343.7,169.02c20.2,20.9,28.43,49.65,39.52,75.72,5.59,13.03,12.07,25.8,21.03,36.82,17.94,22.21,44.44,35.42,70.51,45.85,13.25,5.39,26.93,9.58,40.24,14.91,26.69,10.28,51.64,25.15,79.67,31.6-28.28-5.14-53.77-19.63-80.54-29.36-33.6-12-69.13-22.3-96.98-45.65-16.95-13.74-28.26-33.29-36.14-53.26-10.66-26.39-18.12-54.86-37.31-76.64h0Z"/><path class="cls-1" d="m1343.7,169.02c20.89,19.48,30.28,47.35,42.93,72.14,6.35,12.39,13.77,24.34,23.5,34.34,24.79,25.09,58.9,37.4,90.99,50.33,19.75,7.57,38.31,18.04,56.55,28.6,12.16,7.04,24.28,14.21,37.39,19.35-6.68-2.21-13.13-5.1-19.43-8.23-21.98-10.98-42.97-24-65.73-33.3-22.88-9.11-46.28-17.25-67.87-29.29-47.06-25.98-54.02-54.08-75.05-99.1-6.05-12.64-13.5-24.71-23.27-34.83h0Z"/><path class="cls-1" d="m1343.7,169.01c5.88,5.13,11.31,10.83,16.04,17.08.91,1.24,3.62,5.04,4.57,6.36,1.67,2.59,4.08,6.2,5.6,8.81,13.93,23.68,25.39,49.74,46.67,67.84,26.5,22.45,60.04,33.94,91.31,48.16,19.08,8.6,36.54,20.39,53.39,32.63,11.21,8.19,22.21,16.65,34.17,23.72-6.16-3.2-12.05-6.92-17.83-10.76-20.15-13.44-39.65-28.09-61.48-38.68-34.34-16.45-72.15-27.48-101.49-52.84-2.14-2.04-5.63-5.13-7.55-7.36-26.69-27.87-34.8-68.62-63.39-94.97h0Z"/><path class="cls-1" d="m1343.71,169.01c11.03,8.33,20.15,18.93,28.02,30.24,29.27,44.08,37.46,59.36,87.2,83.64,24.57,12.33,51.01,21.44,73.78,37.23,23.04,15.41,41.95,35.71,63.13,53.34-21.93-16.52-41.29-36.5-64.46-51.33-3.88-2.58-9.07-5.67-13.17-7.94-2.41-1.43-6.54-3.45-9.07-4.76-29.38-14.26-60.78-25.3-87.36-44.75-11.18-8.25-20.84-18.55-28.83-29.88-8.1-11.24-14.85-23.28-22.47-34.69-6.02-9.35-12.99-18.21-20.96-25.97-2.02-1.8-3.95-3.5-5.79-5.13h0Z"/><path class="cls-1" d="m1343.71,169.01c11.52,7.54,21.32,17.43,30.05,28.03,32.39,42.03,44.24,54.36,93.2,77.15,18.5,8.9,37.72,16.93,55.21,27.85,17.51,11.01,32.74,25.41,46.66,40.56,9.26,10.15,18.05,20.67,27.39,30.72-9.84-9.55-18.9-19.89-28.51-29.66-14.17-14.8-29.52-28.55-47-39.28-29.44-17.62-62.48-28.32-91.5-46.87-11.71-7.34-22.35-16.55-31.33-27.01-13.6-15.58-24.3-33.22-38.68-48.05,0,0-3.66-3.6-3.66-3.6-1.84-1.77-3.87-3.41-5.75-5.11-2.47-1.99-3.87-2.99-6.09-4.73h0Z"/><path class="cls-1" d="m1343.71,169.01c30.46,16.7,48.67,48.26,77.1,67.55,29.85,20.28,64.67,31.57,95.58,50.14,22.29,13.37,40.48,32.48,56.1,53.06,8.28,10.99,16.05,22.31,24.12,33.42-8.63-10.68-16.68-21.82-25.33-32.47-16.93-21.35-36.76-40.89-60.82-54.04-29.87-16.86-62.96-28.1-91.22-47.86-28.37-19.85-45.82-51.66-75.52-69.78h0Z"/><path class="cls-1" d="m1343.71,169.01c25.47,11.44,44.46,32.61,66.57,48.99,5.41,3.99,11.35,7.91,17.17,11.31,64.99,35.7,105.49,38.97,148.44,108.02,7.37,11.72,14.17,23.74,21.1,35.69-3.76-5.79-7.43-11.65-11.1-17.5-44.38-71.91-69.23-79.16-141.55-113.89-12.38-6.24-24.56-13.14-35.5-21.71-21.9-16.89-40.21-38.25-65.12-50.91h0Z"/><path class="cls-1" d="m1343.72,169c26.5,9.41,48.22,28.12,72.02,42.41,11.88,7.21,24.48,13.08,37.19,18.85,23.8,10.86,48.21,21.28,69.77,36.37,9.96,7.22,19.2,15.58,27.22,24.9,11.41,13.26,20.89,28.25,29.11,43.66,6.54,12.37,12.44,25.03,18.36,37.67-9.75-18.51-19.07-37.26-30.51-54.79-15.61-23.84-34.21-43.13-59.04-57.36-28.51-16.92-60.24-27.73-88.87-44.49-25.5-15.22-47.55-35.86-75.24-47.22h0Z"/><path class="cls-1" d="m1343.72,169c27.55,7.25,51.93,22.76,77.29,35.11,12.7,6.16,25.82,11.47,38.86,17.06,62.71,26.37,93.52,48.57,121.99,112.09,5.74,12.97,10.86,26.2,15.9,39.45-5.7-12.98-11.09-26.09-17.29-38.81-34.03-72.5-71.52-88.6-141.25-118.54-32.68-13.78-61.52-35.61-95.5-46.36h0Z"/><path class="cls-1" d="m1343.72,169c28.58,4.91,55.39,16.66,82.22,27.14,33.67,12.87,68.65,24.67,97.89,46.46,29.56,21.84,47.98,55.01,60.61,88.83,5.01,13.58,9.46,27.33,13.71,41.13-10.95-30.42-21.64-61.45-39.7-88.5-8.89-13.4-19.7-25.61-32.22-35.72-24.01-19.05-52.7-30.85-81.02-41.99-33.77-12.62-66.1-29.55-101.49-37.35h0Z"/><path class="cls-1" d="m1343.72,169c29.54,2.39,58.4,9.98,86.65,18.63,28.36,8.45,56.72,18.35,81.92,34.26,39,23.55,61.51,65.34,74.45,107.75,4.4,14.14,8.21,28.43,11.79,42.77-6.89-22.97-13.6-46.07-23.16-68.09-21.63-50.85-53.04-79.34-104.03-99.65-6.81-2.79-13.71-5.36-20.67-7.78-34.92-11.78-70.22-23.29-106.95-27.89h0Z"/><path class="cls-1" d="m1343.72,169c63.4-.08,145.18,13.6,192.58,58.7,16.61,15.88,29.05,35.84,38.01,56.86,11.9,28.09,18.57,57.93,24.61,87.7-10.87-43.67-21.7-89.34-49.69-125.59-22.88-30.38-57.91-48.65-93.67-59.63-36.24-11.06-73.97-16.81-111.84-18.04h0Z"/><path class="cls-1" d="m1343.73,168.99c61.52-6.4,129.43-3.55,180.56,35.35,14.11,10.75,26.12,24.34,35.49,39.37,1,1.7,3.68,5.89,4.54,7.61.92,1.71,3.22,6.06,4.17,7.82,0,0,2.51,5.34,2.51,5.34,15.6,33.92,22.36,71.03,28.33,107.62-7.03-34.31-14-69.06-28.28-101.2-2.71-6.04-5.92-12.4-9.18-18.19-.86-1.66-3.53-5.78-4.54-7.45,0,0-1.53-2.47-1.53-2.47l-1.68-2.37c-4.33-6.26-9.24-12.58-14.55-18.05-49.63-52.64-127.72-57.96-195.82-53.39h0Z"/><path class="cls-1" d="m1541.3,47.93c-1.45,19.94-9.7,39.03-19.01,56.52-12.09,22.5-26.75,43.72-37.34,67.02,3.51-10.85,8.45-21.22,13.78-31.29,15.75-29.71,36.26-58.59,42.57-92.25h0Z"/><path class="cls-1" d="m1541.3,47.93c-.74,19.96-8.54,39.25-17.33,56.97-11.3,22.55-25.41,44.79-33.85,68.64,2.57-11.11,6.84-21.79,11.67-32.1,14.27-30.4,34.43-59.66,39.52-93.51h0Z"/><path class="cls-1" d="m1541.3,47.93c.03,20.04-7.28,39.6-15.5,57.64-10.52,22.94-23.69,45.91-29.67,70.61,1.44-11.34,4.89-22.39,9.1-33.02,12.48-31.3,32.29-61.08,36.08-95.23h0Z"/><path class="cls-1" d="m1503.19,179.61c.76-46.82,35.1-85.21,38.14-131.66,0,0-.01-.03-.01-.03,0,0,.01.03.01.03,1.31,47.11-33.1,85.67-38.14,131.66h0Z"/><path class="cls-1" d="m1511.84,184.25c-6.24-47.96,28.49-89.09,29.49-136.3,0,0-.01-.03-.01-.03,0,0,.01.03.01.03,1.99,23.66-6.42,46.62-14.39,68.51-8.12,21.79-15.69,44.21-15.1,67.79h0Z"/><path class="cls-1" d="m1522.63,191c-8.93-31.04.15-60.04,9.37-89.69,5.32-17.34,9.8-35.07,9.32-53.39,2.45,18.22-1.5,36.71-6.47,54.22-8.93,30.27-17.94,56.75-12.22,88.86h0Z"/><path class="cls-1" d="m1536.75,201.67c-9.62-23.43-12.27-44.72-8.08-69.8,4.65-27.97,15.13-55.31,12.67-83.92,1.02,6.42,1.6,12.97,1.4,19.51-.3,16.24-4.3,32.45-7.74,48.25-7.26,31.78-7.97,54.55,1.75,85.96h0Z"/><path class="cls-1" d="m1558.07,223.74c-10.81-21.76-21.14-44.79-23.25-69.32-.54-5.22-.57-11.78-.37-17.05.85-21.7,7.13-45.35,8.01-67.03.3-7.38-.14-15.04-1.12-22.38,5.27,22.02,1.36,45.14-1.68,67.29-1.87,13.77-3.02,27.85-1.6,41.69,2.34,23.21,11.45,45.29,20.01,66.81h0Z"/><path class="cls-1" d="m1594.9,303.69c-1.59-10.94-3.56-21.84-6.72-32.41-9.13-30.52-27.5-61.59-37.72-91.76-3.09-9.13-5.84-18.73-7.22-28.28-4.43-27.51,2.2-55.22.88-82.79,0,0-.3-4.11-.3-4.11l-.15-2.06c-.23-1.73-.6-4.48-.82-6.14-.34-2.54-1.07-5.63-1.52-8.13,0,0,.02-.04.02-.04,0,0-.02-.06-.02-.06,0,0,.03.06.03.06,10.23,34.82-1.69,71.64,5.54,106.83.27,1.27,1,4.76,1.26,6,.33,1.32,1.2,4.6,1.55,5.95,10.12,35.78,30.21,68.1,39.94,104.12,2.69,10.78,4.36,21.79,5.25,32.81h0Z"/><path class="cls-1" d="m1541.32,47.92c3.11,8.56,5.16,17.67,6.36,26.73,1.97,15.12,1.81,30.47,3,45.57,1.25,18.21,5.45,35.86,12.15,52.78,10.8,28.45,25.58,55.47,33.63,84.95,3.13,11.87,4.8,24.07,5.41,36.27.52,12.17.08,24.58-1.01,36.55.4-12.15.5-24.34-.52-36.46-.91-12.09-2.84-24.11-6.2-35.73-6.91-23.33-17.83-45.13-27.32-67.51-4.75-11.26-9.27-22.65-12.71-34.41-10.89-35.45-1.79-73.4-12.79-108.75h0Z"/><path class="cls-1" d="m1602.97,342.39c11.13-74.99-.21-98.41-29.77-165.02-7.65-17.55-14.42-35.73-17.41-54.72-3.24-18.89-4.23-37.95-8.72-56.56-1.1-4.35-2.55-9.47-4.09-13.69,0,0-1.64-4.48-1.64-4.48,5.26,11.63,8.53,24.08,10.77,36.62,2.18,12.57,3.63,25.23,6.05,37.67,4.42,25.03,15.3,48.13,25.55,71.4,7.67,17.54,15.42,35.16,20.27,53.74,8.23,31.11,5.14,63.84-1,95.03h0Z"/><path class="cls-1" d="m1604,348.67c20.41-85.37,8.88-111.71-26.26-188.53-5.25-12.01-10.23-24.32-13.66-37.04-5.42-18.98-8.72-38.36-15.17-56.99-2.2-6.18-4.74-12.24-7.59-18.18,3.15,5.78,5.96,11.75,8.37,17.89,7.21,18.34,10.91,37.88,16.7,56.6,12.38,40.82,36.93,77.19,46.35,119.08,8.19,35.66,1.14,72.65-8.74,107.18h0Z"/><path class="cls-1" d="m1604.64,352.69c17.95-56.73,25.85-100.16,1.36-156.72-7.57-18.67-16.8-36.71-25.25-55.04-8.57-18.35-14.73-37.76-22.01-56.58-4.75-12.6-10.44-24.82-17.39-36.37,15.13,22.09,23.53,48.63,33.72,73.37,5.13,12.45,11.06,24.5,16.98,36.59,38.3,76.34,42.01,113.78,12.59,194.75h0Z"/><path class="cls-1" d="m1605.09,355.47c14.64-38.26,28.61-79.11,23.01-120.62-5.07-37.8-24.24-71.8-41.58-105.21-14.07-27.64-26.71-56.86-45.16-81.66,17.62,21.51,29.88,46.75,42.63,71.27,6.4,12.26,13.17,24.34,19.53,36.7,13.32,26.24,25.61,54.06,28.05,83.75,3.51,40.27-10.66,79.42-26.47,115.77h0Z"/><path class="cls-1" d="m1605.39,357.52c33.99-74.47,47.48-127.34,6.72-202.99-20.52-37.37-42.47-74.46-70.74-106.59,9.75,9.98,19.13,21.32,27.62,32.73,16.64,23.27,32.07,47.33,45.76,72.48,15.81,29.54,27.43,62.58,25.4,96.54-2.16,38.24-17.76,74.07-34.75,107.83h0Z"/><path class="cls-1" d="m1541.37,47.94c46.52,40.18,97.42,102.08,106.07,164.55.65,4.25.92,9.59,1.23,13.89.07,2.59.02,7.15.04,9.76-.21,3.16-.37,6.58-.62,9.73-.92,9.11-2.58,18.49-4.82,27.37-4.25,16.05-10.21,31.72-17.21,46.75-6.29,13.35-13.17,26.39-20.4,39.21,8.3-16.43,16.4-32.94,23.28-50,10.82-27.03,18.46-56.16,16.53-85.44-4.21-66.28-57.4-131.67-104.08-175.84h0Z"/><path class="cls-1" d="m1605.82,360.58c25.52-45.65,52.01-95.32,48-149.24-5.8-70.04-59.35-123.02-112.46-163.4,49.33,34.69,97.41,79.65,111.93,140.39,15.24,61.46-15.94,121.41-47.48,172.25h0Z"/><path class="cls-1" d="m1597.24,331.63c15.25,53.45,15.21,111.43-.41,165.34-.57,1.99-2.65,3.13-4.64,2.56-1.99-.57-3.13-2.65-2.56-4.64,17.07-52.02,19.27-109.15,5.95-162.82-.11-.46.17-.93.63-1.04.45-.11.91.16,1.03.6h0Z"/><path class="cls-1" d="m351.36,258.62c10.62-17.32,36.03-19.72,53.03-10.34,14.44,7.54,22.29,23.91,23.2,39.71,2.26,31.12-18.76,57.19-44.6,71.93-25.55,15.1-55.02,20.6-83.12,28.7-40.26,11.17-77.9,30.79-110.46,57.11,25.33-21.98,54.56-39.45,85.87-51.52,15.66-6.16,31.98-10.32,48.1-14.72,24.06-6.54,48.25-14.03,68.54-28.82,19.71-14.18,33.37-34.64,33.46-59.47,0-13.23-4.51-26.93-14.28-36.16-16.18-15-46.68-15.82-59.75,3.58h0Z"/><path class="cls-1" d="m353.29,256.54c8.95-17.72,34.2-22.28,50.02-10.85,7.79,5.6,12.17,14.83,13.54,24.3,2.86,20.45-5.67,41.09-19.06,56.29-31.79,36.78-81.96,44.75-124.6,62.89-30.7,13.17-59.02,31.52-84.19,53.56,29.2-27.59,64.11-49.47,101.93-63.26,12.59-4.66,25.33-8.78,37.83-13.47,36.07-13.27,76.03-35.76,85.04-76.15,2.98-13.75,1.81-29.97-8.57-40.42-14.72-14.26-41.85-11.07-51.94,7.11h0Z"/><path class="cls-1" d="m355.22,254.47c4.5-11.17,16.09-18.96,28.28-18.67,12.49.06,21.42,8.4,23.45,20.57,1.83,11.15-.82,22.57-5.04,32.87-18.44,41.88-63.08,62.69-103.02,79.2-34.05,13.77-65.98,32.37-93.92,56.27-5.59,4.76-11.06,9.67-16.39,14.74,20.48-21.16,43.92-39.49,69.49-54.14,25.41-14.86,53.81-23.92,79.65-37.8,19.19-10.3,37.47-23.22,50.87-40.59,10.68-14.15,18.83-32.2,16.53-50.24-1.68-11.45-9.96-19.34-21.66-19.74-11.94-.62-23.39,6.8-28.24,17.53h0Z"/><path class="cls-1" d="m357.16,252.44c1.09-3.46,3.03-7.13,5.21-9.97,2.07-2.73,4.72-5,7.54-6.81.67-.44,1.38-.82,2.11-1.15l-.21.2s.01-.03.01-.03c0,0,.07-.14.07-.14s.13-.05.13-.05c3.94-1.92,8.37-3.01,12.77-2.43,20.56,3.36,13.1,30.66,6.87,43.81-5.22,11.48-12.86,21.72-21.53,30.81-25.94,27.64-60.91,43.57-93.8,61.1-32.87,17.67-62.4,41.01-88.17,68.03,24.68-28.06,54.14-52.2,86.91-70.31,21.72-12.1,44.38-22.6,64.75-36.87,24.7-17.5,48.95-40.54,55.82-71.07,2.14-9.92,1.04-22.31-11.04-24.29-3.09-.51-6.3-.09-9.29.82-1,.29-1.95.77-2.94,1.15,0,0,.19-.19.19-.19,0,0-.01.03-.01.03l-.07.14s-.14.06-.14.06c-1.24.43-2.85,1.58-3.97,2.28-5.22,3.6-9.01,9-11.22,14.89h0Z"/><path class="cls-1" d="m359.09,250.37c1.22-5.19,3.53-10.44,6.87-14.3,2.75-3.32,6.26-6.13,10.39-7.53,6.34-2.29,12.79.45,13.34,7.68.79,11.4-7.97,27.58-14.31,37.3-13.17,19.68-31.08,35.76-49.94,49.85-28.39,20.91-60.2,36.69-87.34,59.29-18.13,14.82-34.95,31.28-50.39,48.98,22.03-27.49,48.01-52.1,77.24-71.89,29.17-19.53,60.34-36.51,85.63-61.17,12.61-12.08,24.03-25.64,31.71-41.39,3.06-6.69,10.37-22.45,2.2-27.33-7.22-3.19-15.09,2.61-19.36,8.21-2.88,3.57-4.79,7.94-6.05,12.31h0Z"/><path class="cls-1" d="m361.04,248.31c.9-7.05,3.47-13.99,8.06-19.5,2.49-2.62,5.29-5.45,9.21-5.59,5.38.32,3.71,7.26,2.49,10.12-9.08,21.33-24.27,39.46-40.57,55.64-32.46,32.82-73.2,55.49-106.61,87.13-16.69,15.72-32.08,32.8-46.34,50.76,13.45-18.61,28.46-36.15,44.93-52.23,24.5-24.46,53.77-43.08,80.47-64.82,17.64-14.49,34.56-30.11,48.75-48.04,6.93-9,13.45-18.55,17.97-28.99.52-1.35,1.02-2.72,1.24-4.15.76-5.26-3.62-4.93-7-2.64-1.4.97-2.72,2.13-3.93,3.38-4.66,5.25-7.46,12.07-8.67,18.95h0Z"/><path class="cls-1" d="m362.97,246.24c.29-7.37,1.84-14.56,5.25-21.12,1.28-2.29,2.64-4.68,4.77-6.32.4-.28.94-.59,1.48-.47.5.11.74.67.73.93.05.7-.2,1.32-.45,1.91-1.67,3.33-4.08,6.25-6.26,9.26-6.98,9.51-14.95,19.57-23.18,28.83-35.81,40.82-81.33,71.47-117.83,111.52-14.49,16.02-27.99,32.96-40.61,50.55,17.75-27.19,38.11-52.9,61.52-75.49,39.4-36.93,83.1-69.68,116.13-112.84,1.67-2.16,4.69-6.02,6.73-8.76,1.04-1.52,2.45-3.03,2.76-4.86-.02-.11.02.07.15.08,0,0,.02,0,.03,0-.01,0-.03.01-.05.01-.02,0-.09.03-.15.05-2.28,1.34-3.66,3.82-5.04,6.02-3.56,6.34-5.36,13.45-6,20.69h0Z"/><path class="cls-1" d="m364.88,244.19c-.17-3.42-.18-7.28.06-10.71,0-.04.02-.08.04-.11-.06.43.47-4.47.46-4.38,0,0,.01.16.01.16.22-2.84,1.12-6.57,1.83-9.67.33-1.8,1.11-3.77,1.09-5.52.02.04.06.12.13.12.02.02.04.03.07.02.01,0-.02.01-.02.01-.06.01-.23.08-.38.17l-1.95,1.28s.08-.06.08-.06c-.53.39-1.08.85-1.78,1.36,0,0,.23-.26.23-.26-.13.23-.23.26-.23.28-.02,0,.05,0,.17-.21-8.68,7.06-16.18,15.47-23.92,23.54-6.64,7.09-16.38,16.96-23.32,23.93-22.21,22.77-49.01,47.69-70.61,70.98-22.7,24.46-42.22,51.66-60.32,79.65,11.17-19.27,23.49-37.89,36.99-55.66,27-35.63,60.73-65.23,92.06-96.85,7.9-7.84,15.87-15.6,23.68-23.53,7.41-7.36,14.55-15.11,22.71-21.67.55-.4,1.11-.9,1.76-1.3,0,0-.27.29-.27.29.13-.23.23-.26.23-.28.02,0-.05,0-.17.21,0,0,.23-.26.23-.26l.74-.51c-.21.15.52-.38.5-.37.17-.13.36-.25.53-.38,1.08-.49,3.14-2.62,3.99-.92.17.69.03,1.05-.03,1.49-.74,3.17-1.71,6.16-2.43,9.31-.39,1.58-.67,3.18-.98,4.77.02-.05.02-.05.02-.07v-.04s0-.05,0-.06v.16s-.62,4.41-.62,4.41c0,.02,0,.07-.02.09,0,0-.01.03-.01.03,0,0,.02-.09.02-.09-.39,3.41-.56,7.24-.55,10.67h0Z"/><path class="cls-1" d="m366.84,242.14c-.64-4.1-1.23-9.87-1.36-13.15-.27-3.95-.24-13.66-1.11-17.4-.38-1.67-1.19-3.39-3.09-3.36,0,0-.28-.07-.28-.07.04.07.14.05.2.03-5.29.4-11.19,4.16-15.85,7.57-8.86,6.63-16.88,14.37-24.9,22.01-12.01,11.55-23.81,23.34-35.09,35.61-14.99,15.93-30.61,32.77-44.1,49.93-20.82,26.07-38.4,54.52-55.01,83.41,10.16-19.81,21.23-39.17,33.47-57.82,18.15-27.97,40.52-53.44,63.54-77.51,11.33-12.29,23.28-24,35.48-35.44,8.23-7.55,16.45-15.13,25.56-21.66,4.91-3.57,12.1-7.53,16.82-7.48,4.75.04,4.8,6.19,4.87,10.44,0,7.8,0,17.18.86,24.88h0Z"/><path class="cls-1" d="m368.77,240.06c-1.05-4.1-2.1-9.06-2.97-13.18-.6-3.13-1.51-7.72-2.31-10.79-1.31-4.89-2.63-10.88-7.44-13.46,0,0-.34-.14-.34-.14l-.38-.26c.16.2.36.23.27.2-.22-.08-.25-.08-.43-.14-5-1.55-10.4.05-15.11,1.95-10.09,4.39-18.8,11.53-27.2,18.57-37.59,32.78-69.35,72.25-95.05,114.94-11.47,19.06-21.28,39.04-31.61,58.74,4.66-10.1,9.47-20.15,14.21-30.23,24.26-50.22,57.47-96.19,98.23-134.33,12.6-11.31,32-29.09,48.95-31.67,2.79-.38,5.73-.35,8.4.69.05.02.11.04.04.01-.01,0,.28.05.49.32l-.38-.26s.56.24.56.24c5.83,3.17,7.03,11.37,8.29,17.4,1.14,6.21,2.41,14.68,3.78,21.38h0Z"/><path class="cls-1" d="m370.68,238.02c-2.7-7.6-5.45-16.85-8.49-24.25-3.42-8.23-7.95-16.65-16.98-18.62-24.92-5.51-58.67,27.97-74.57,45.06-14.75,16.42-28,34.21-39.63,52.98-17.64,28.2-30.99,58.69-44.36,89.11,8.06-20.65,16.26-41.29,26.18-61.19,19.73-39.69,45.68-77.27,79.84-105.94,14.25-11.28,33.67-26,52.97-21.7,10.48,2.52,14.94,12.6,18.47,22.66,2.15,6.21,4.59,15.16,6.59,21.9h0Z"/><path class="cls-1" d="m372.64,235.96c-5.28-11.58-10.06-23.81-17.47-33.99-7.38-10.14-17.11-15.91-30.87-15.08-21.33,1.77-40.3,16.77-55.43,30.95-31.17,30.63-52.24,70.02-68.29,110.31-3.94,10.2-7.82,20.41-11.84,30.59,3.47-10.37,7.1-20.7,10.66-31.05,18.59-50.38,46.86-102.92,93.52-132.27,9.5-5.67,20.03-10.33,31.27-10.77,17.85-.71,28.82,8.99,36.44,23.58,4.53,8.37,8.31,18.22,12.01,27.71h0Z"/><path class="cls-1" d="m374.56,233.89c-4.53-8.2-9.3-16.82-14.56-24.63-8.53-13.1-20.3-25.68-36.08-29.17-15.09-3.64-30.79,1.07-43.99,8.64-27.17,15.61-46.7,41.46-62.05,68.36,13.72-28.07,33.13-54.9,60.62-70.85,13.66-7.98,30.3-12.84,46.05-8.78,18,4.22,30.3,19.51,38.77,34.49,3.83,6.63,7.92,14.84,11.23,21.94h0Z"/><path class="cls-1" d="m376.51,231.86c-18.29-27.77-41.33-62.13-78.42-61.62-16.53.14-32.29,7.21-45.55,16.78-6.02,4.27-11.56,9.22-16.78,14.49,9.54-11.34,21.25-21.19,34.94-27.51,21.23-10.16,45.51-8.62,64.62,5.42,18.3,13.3,30.39,33.08,41.2,52.44h0Z"/><path class="cls-1" d="m118.61,150.99c-8.98-23.85,12.98-50.34,37.06-52.14,25.05-1.71,47.79,16.65,57.14,39.02,9.51,22.78,7.53,48.57,1.24,71.92-6.89,25.75-19.21,49.62-27.41,74.79-8.3,25.02-13.25,51.37-14.75,77.68-1.61,28.88.95,57.88,7.45,86.09-7.4-28.05-10.55-57.19-9.3-86.18,1.12-26.56,5.75-53.15,14.09-78.41,13.81-42.63,39.97-85.04,30.54-131.32-2.2-10.46-6.54-20.44-13.11-28.88-10.74-13.99-27.74-24.12-45.77-23.06-23.55,1.49-45.28,26.91-37.17,50.49h0Z"/><path class="cls-1" d="m118.13,148.21c-10.12-19.48,4.43-45.68,26.46-46.93,19.25-.6,35.89,13.06,45.75,28.6,8.84,13.86,12.46,30.55,12.93,46.82,1.28,37.55-14.91,72.51-24.66,107.89-7.16,26.65-10.6,54.29-10.46,81.88.14,27.65,3.96,55.29,11.12,82.01-5.37-17.68-9.09-35.88-11.18-54.27-2.03-18.39-2.42-37.04-1.14-55.49,1.74-37.22,14.44-72.65,25.29-107.82,7.68-26.14,12.1-54.51,4.33-81.11-6.37-21.95-24.42-44.77-48.54-46.85-22.96-2.01-39.74,24.95-29.91,45.28h0Z"/><path class="cls-1" d="m117.64,145.42c-7.32-11.2-6.8-27.78,3.69-36.9,7.38-6.66,17.17-5.75,25.65-1.79,16.33,7.87,27.45,23.85,33.7,40.46,9.08,25.42,7.84,53.27,2.88,79.42-4.07,21.79-10.8,43.06-14.7,64.76-7.79,43.49-6.2,88.47,3.49,131.54,2,8.62,4.28,17.18,6.84,25.66-5.77-16.77-10.1-34.03-13.09-51.52-5.77-35.05-6.07-71.13.12-106.16,4.62-26.27,13-51.5,16.7-77.86,3.54-25.84,2.55-53.55-9.8-77.03-8.13-14.68-21.47-29.89-39.27-31.03-8.85-.11-16.32,6.87-19.05,15-2.94,8.28-1.62,17.79,2.85,25.42h0Z"/><path class="cls-1" d="m117.16,142.64c-5.2-6.74-8.47-15.45-6.99-24.04.92-6.44,5.91-13.08,12.97-12.8,17.8,1.67,33.09,24.8,39.18,40.11,9.66,24.06,10.57,50.64,8.22,76.16-2.37,25.48-8.54,50.53-10.82,75.93-3,33.85-.81,68.14,5.93,101.45,3.35,16.7,7.93,33.14,13.46,49.26-6.15-15.92-11.05-32.31-14.87-48.96-7.35-33.4-10.16-67.88-7.18-101.98,2.17-25.59,8.09-50.51,10.7-75.97,2.51-25.13,1.53-51.3-7.52-75.06-5.7-14.99-20.01-37.43-37.13-39.68-6.53-.39-11.15,5.73-12.17,11.67-1.65,8.37,1.35,17.07,6.23,23.9h0Z"/><path class="cls-1" d="m116.67,139.86c-5.58-6.01-10.48-13.39-10.95-21.84-.39-8.07,5.4-12.26,12.84-8.34,9.29,5.08,15.1,14.56,20.16,23.51,7.9,14.65,12.64,30.87,15.08,47.28,6.64,41.12-2.32,82.51-2.62,123.66,0,41.15,6.99,82.21,19.58,121.37,2.55,7.84,5.33,15.61,8.27,23.32-3.23-7.59-6.27-15.27-9.01-23.07-13.72-38.99-21.36-80.24-21.51-121.62.23-49.12,12.31-99.18-2.36-147.3-3.47-11.74-8.41-23.18-15.36-33.29-4.26-5.84-10.65-14.09-18.41-14.22-4.26.24-6.03,4.89-5.88,8.68.26,8.24,4.91,15.74,10.17,21.85h0Z"/><path class="cls-1" d="m116.19,137.07c-6.05-5.31-11.49-11.61-14.5-19.18-.72-1.95-1.36-3.95-1.16-6.09.07-.54.2-1.14.68-1.65,4.21-4,17.11,17.53,18.8,20.99,29.73,54.66,18.5,118.84,23.09,178.29,4.25,48.05,16.85,95.22,35.86,139.52-17.23-36.44-29.35-75.39-35.56-115.23-7.01-39.89-3.07-80.5-5.32-120.65-1.96-27.83-6.37-56.24-19.52-81.16-1.86-3.54-3.86-7.02-6.06-10.35-1.37-2.15-10.15-14.88-11.04-9.63-.2,8.81,8.56,19.31,14.73,25.14h0Z"/><path class="cls-1" d="m115.7,134.29c-8.54-6.04-16.25-13.46-22.19-22.14,0,0-.21-.31-.21-.31,0,0-.04-.06-.04-.06-.14.18,1.58-.95.85-.47,0,0,.08.15.08.15.18.33,1.5,2.92,1.71,3.33,17.3,31.77,25.8,67.38,29.52,103.17,4.36,39.59,4.84,79.65,14.35,118.48,8.7,38.87,22.05,76.63,39.09,112.61-18.39-35.42-32.46-73.17-41.57-112.04-9.8-38.87-10.56-79.11-14.53-118.75-3.46-31.56-9.28-63.19-22.85-92.13-2.1-4.75-4.36-9.52-6.62-14.21,0,0-.09-.18-.09-.18-.75.44.92-.82.85-.54,0,0,.07.1.07.1,5.68,8.91,13.2,16.53,21.57,22.99h0Z"/><path class="cls-1" d="m115.22,131.51c-7.02-4-13.61-8.71-20.11-13.5-2.75-1.79-5.55-4.52-8.8-5.06-1.3.08-1.11,2.03-1.14,3.13.23,2.98,1.01,5.86,1.79,8.74,2.16,7.74,4.69,15.42,7,23.16,11.66,38.72,16.68,79.07,23.11,118.87,8.42,55.82,26.83,109.74,50.92,160.68,3.48,7.28,7.1,14.49,10.8,21.66-19.93-35.13-36.1-72.44-48.14-111-15.25-46.23-19.06-94.96-27.84-142.57-2.76-13.93-6.55-33.69-10.62-47.12-2.71-10.23-6.48-20.29-8.09-30.82-1.17-10.95,7.13-3.5,11.48-.28,6.38,4.95,12.78,9.85,19.64,14.12h0Z"/><path class="cls-1" d="m114.73,128.73c-7.51-3.43-14.75-7.46-22.15-11.11-4.46-1.92-12.65-6.67-16.34-1.69-4.14,6.68-.02,22.1,1.32,29.83,6.06,27.44,14.82,69.36,20.68,96.92,5.35,24.13,10.99,48.26,19.25,71.59,2.3,6.56,5.76,16.85,8.31,23.29,14.72,38.55,32.5,75.9,52.93,111.76-38.87-63.38-68.64-132.97-83.23-206.03-6.66-31.98-13.4-65.2-19.75-97.15-1.14-8.05-8.11-34.1,5.42-33.48,4.27.41,8.01,2.44,11.76,4.29,7.34,3.84,14.42,8.08,21.8,11.8h0Z"/><path class="cls-1" d="m114.25,125.94c-8-2.89-15.86-6.21-23.93-8.87-5.92-1.8-12.33-3.79-18.42-2.04-13.54,4.32-9.49,28.72-8.25,39.72,7.07,46.12,18.39,91.8,34.38,135.64,5.75,15.7,12.96,31.69,19.9,46.91,17.96,38.55,38.3,75.99,60.73,112.13-32.94-49.64-61.61-102.49-83.26-158.05-16.27-43.99-27.3-89.95-33.78-136.37-1.16-11.92-4.87-36.8,9.91-41.19,11.55-3.17,31.39,8,42.72,12.13h0Z"/><path class="cls-1" d="m113.76,123.16c-12.3-3.21-25.8-8.13-38.55-8.46-28.04-.78-27.94,28.44-26.16,49.17,5.32,52.53,23.74,103.08,47.83,149.8,7.3,13.53,17.89,33.11,25.61,46.22,17.62,30.53,36.41,60.39,56.08,89.65-25.85-35.74-49.55-73.04-71.35-111.39-30.6-53.41-55.03-112.3-60.41-174.1-1.62-21.63-.71-51.94,28.44-50.46,13.32.81,25.9,5.68,38.52,9.56h0Z"/><path class="cls-1" d="m113.28,120.38c-13.4-2.7-26.93-5.91-40.67-5.67-27.94.42-38.02,19.74-38.84,45.21-.52,18.18,2.26,36.42,6.98,53.97,13.92,53.42,44.39,100.25,74.79,145.63,20.33,30.51,41.37,60.52,62.95,90.15-11.3-14.44-22.27-29.14-33.11-43.93-16.11-22.3-31.94-44.81-47.09-67.77-25.53-38.1-48.71-78.61-60.13-123.39-4.68-17.81-7.5-36.31-6.65-54.76.84-18.8,7.19-38.9,27.3-44.47,18.12-4.64,36.77,1.04,54.46,5.04h0Z"/><path class="cls-1" d="m112.79,117.6c-18.7-2.52-38.17-5.62-56.73-1-31.57,7.67-39.39,38.6-37.52,67.44,3.29,47.83,28.17,90.97,55.31,129.36,22.54,30.79,45.89,61.07,69.29,91.23,11.66,15.13,23.5,30.12,35.29,45.16-24.59-29.25-48.48-59.09-72.04-89.18-35.02-45-72.25-91.38-86.11-147.89-3.42-14.03-5.11-28.56-4.22-43,1.27-22.04,10.58-44.36,32.73-52.38,20.64-7.45,43.03-3.19,64.01.27h0Z"/><path class="cls-1" d="m112.31,114.81c-30.98-2.51-67.71-4.9-91.34,19.04C1.8,153.82-.19,184.3,5.11,210.23c13.47,59.06,57.08,104.22,95.32,148.88,22.89,26.26,55.56,64.57,77.91,90.79-23.06-25.29-56.44-63.3-79.61-89.3C59.7,316,15.7,270.51,2.5,210.77c-4.89-24.4-3.45-52.08,12.06-72.57,22.85-29.76,64.23-27.37,97.75-23.39h0Z"/><path class="cls-1" d="m178.38,389.73c-.31,32.31,7.99,64.39,23.54,92.09.97,1.72.35,3.91-1.37,4.87-1.79,1.01-4.1.28-4.98-1.57-14.31-29.77-20.56-63.03-18.2-95.43.02-.28.26-.49.54-.47.27.02.47.25.47.51h0Z"/><path class="cls-2" d="m325.62,0c13.71,23.52,19.33,53.52,10.4,79.71-3.93,11.24-11.67,21.7-22.94,26.33-7.37,3.06-15.36,3.63-23.09,5.02-15.39,2.37-29.15,12.39-36.92,26.01,6.27-12.26,17.62-22.01,30.9-25.95,13.1-3.73,27.68-2.82,38.1-12.75,24.83-23.68,18.67-70.76,3.56-98.37h0Z"/><path class="cls-2" d="m253.03,137.04c6.9-13.47,19.19-24.58,34.04-28.43,7.22-2.04,14.81-3.01,21.49-6.47,6.55-3.43,11.9-8.92,15.71-15.29,9.84-16.04,11.93-35.78,10.16-54.22-1.16-11.25-4.1-22.27-8.76-32.6,5.16,10.1,8.49,21.19,9.88,32.47,2.66,22.2-.66,47.68-16.91,64.32-8.57,8.82-19.98,10.55-31.22,13.12-14.71,3.5-26.91,14.15-34.4,27.1h0Z"/><path class="cls-2" d="m253,137.02c6.67-12.92,17.55-24.42,31.45-29.44,6.8-2.53,14.02-4,20.19-7.87,6.03-3.82,10.9-9.34,14.57-15.51,9.42-15.53,12.69-34.11,12.41-52.09-.29-10.91-2.13-21.76-5.88-32.05,4.28,10.12,6.49,21.05,7.01,32.01,1.09,24.1-5.72,55.12-27.26,69.03-6.33,3.9-13.67,5.43-20.57,7.77-13.84,4.69-24.64,15.72-31.92,28.15h0Z"/><path class="cls-2" d="m252.96,137c6.51-12.48,16.03-24.09,28.91-30.37,6.33-3.06,13.15-5.11,18.78-9.35,5.51-4.19,9.96-9.71,13.49-15.72,10.72-18.13,15.09-39.64,14.62-60.58-.22-7.03-1.16-14.05-2.96-20.88,2.19,6.72,3.32,13.77,3.84,20.84,1.11,21.22-3.19,43.09-13.96,61.54-3.66,6.12-8.27,11.78-14.06,16.11-5.77,4.28-12.72,6.41-19.16,9.28-12.79,5.89-22.43,17.16-29.5,29.13h0Z"/><path class="cls-2" d="m252.93,136.98c6.34-12.14,14.77-23.7,26.45-31.24,5.8-3.62,12.15-6.31,17.22-10.93,18.65-17.68,28.07-49.06,29.95-74.21.48-6.81.33-13.69-.69-20.48,1.42,6.72,1.75,13.65,1.56,20.52-1.03,25.22-10.66,57.97-29.76,75.38-5.18,4.65-11.66,7.43-17.58,10.88-11.64,7.13-20.26,18.43-27.16,30.07h0Z"/><path class="cls-2" d="m252.89,136.96c6.19-11.87,13.72-23.35,24.09-32.04,5.2-4.22,10.98-7.6,15.49-12.55,16.73-18.81,27.23-47.7,31.74-72.27,1.17-6.57,1.83-13.24,1.71-19.94.52,6.68.04,13.42-.85,20.07-3.67,24.6-14.39,54.79-31.43,73.26-4.6,4.96-10.5,8.46-15.81,12.5-10.41,8.31-18.17,19.58-24.94,30.96h0Z"/><path class="cls-2" d="m252.86,136.94c6.06-11.68,12.9-23.06,21.86-32.8,4.52-4.78,9.57-8.94,13.56-14.17,4.03-5.12,7.49-10.69,10.69-16.37,9.63-17.08,17.28-35.37,22.78-54.21,1.85-6.29,3.31-12.69,4.24-19.2-2.69,28.46-18.86,68.18-36.43,90.79-4.06,5.22-9.2,9.49-13.84,14.1-9.07,9.41-16.18,20.63-22.84,31.85h0Z"/><path class="cls-2" d="m252.83,136.92c5.94-11.54,12.28-22.9,19.77-33.59,3.77-5.29,7.93-10.24,11.43-15.71,13.8-21.9,25.2-45.32,35.21-69.18,2.49-5.98,4.78-12.05,6.81-18.22-5.16,18.8-13.03,36.78-21.57,54.27-5.77,11.66-11.89,23.16-19.09,34.02-3.58,5.47-7.77,10.5-11.68,15.62-7.68,10.42-14.3,21.63-20.87,32.78h0Z"/><path class="cls-2" d="m252.79,136.9c22.95-45.15,48.77-92.28,73.31-136.64-22.73,46.11-47.9,91.96-73.31,136.64h0Z"/><path class="cls-2" d="m252.76,136.88c5.82-11.55,11.51-23.25,15.94-35.4,2.13-6.08,4.09-12.32,6.68-18.31,5.12-11.98,11.42-23.37,17.99-34.58,9.96-16.71,20.45-33.22,32.78-48.29-7.69,10.44-14.65,21.38-21.42,32.43-10.08,16.57-19.93,33.38-27.86,51.09-2.64,5.92-4.56,12.09-6.89,18.14-4.76,12.13-10.73,23.69-17.23,34.92h0Z"/><path class="cls-2" d="m252.72,136.85c5.84-11.66,11.25-23.76,14.11-36.5,1.3-6.41,2.11-13.03,4.21-19.28,4.14-12.58,10.64-24.14,17.64-35.3,10.68-16.5,22.59-32.58,37.54-45.46-4.78,4.49-9.19,9.35-13.33,14.42-12.38,15.19-23.5,31.55-32.5,48.95-3,5.79-5.75,11.73-7.8,17.89-2.15,6.2-2.91,12.69-4.42,19.08-3.2,12.81-8.91,24.81-15.45,36.2h0Z"/><path class="cls-2" d="m252.69,136.83c5.91-11.83,11.01-24.5,12.27-37.73.48-6.64.21-13.47,1.76-20.04,7-28.44,34.75-63.47,59.56-78.71-5.54,3.73-10.65,8.05-15.4,12.72-17.7,17.66-36.11,41.97-42.57,66.36-1.6,6.49-1.29,13.16-1.98,19.81-1.59,13.4-7,26-13.63,37.6h0Z"/><path class="cls-2" d="m252.65,136.81c6.05-12.08,10.73-25.45,10.37-39.07-.32-6.82-1.54-13.73-.59-20.61,3.94-25.64,25.89-51.28,46.13-66.46,5.56-4.02,11.44-7.65,17.77-10.29-6.15,3.01-11.89,6.76-17.24,10.99-19.65,15.76-40.69,40.61-45.05,65.97-1,6.77.24,13.53.34,20.36.05,13.86-4.95,27.23-11.74,39.1h0Z"/><path class="cls-2" d="m252.62,136.79c6.25-12.39,10.36-26.59,8.4-40.49-1.06-6.95-3.13-13.89-2.8-21.04.32-7.21,2.5-14.17,5.54-20.6,9.42-19.13,25.2-34.72,43.31-45.71,6.12-3.54,12.56-6.56,19.33-8.54-6.64,2.36-12.96,5.53-18.88,9.29-17.52,11.34-32.99,26.85-42.16,45.73-3.02,6.26-5.17,13-5.53,19.9-.38,7.02,1.68,13.82,2.53,20.79,1.69,14.19-2.77,28.48-9.75,40.67h0Z"/><path class="cls-2" d="m252.58,136.77c6.51-12.81,9.84-27.83,6.34-41.97-1.75-7.05-4.54-13.98-4.85-21.38-.33-7.44,1.58-14.81,4.69-21.51,9.58-19.9,27.35-35.05,46.99-44.58,6.63-3.07,13.57-5.48,20.72-6.89-10.59,2.67-20.58,7.21-29.77,13.05-17.82,11.7-34.36,28.13-39.92,49.26-.82,3.48-1.19,7.04-1.09,10.59.25,7.25,3.02,14.07,4.57,21.14,3.26,14.37-.42,29.7-7.67,42.28h0Z"/><path class="cls-2" d="m252.55,136.75c6.83-13.28,9.14-29.22,4.19-43.48-2.4-7.14-5.79-14.07-6.77-21.67-2.59-23.53,15.86-43.66,34.3-55.61,12.73-8.16,27.22-13.71,42.24-15.51-14.83,2.53-29.02,8.29-41.49,16.66-15.21,10.26-29.22,24.78-33.07,43.26-.67,3.63-.77,7.34-.37,11,.87,7.36,4.24,14.2,6.46,21.46,4.73,14.51,2.08,30.85-5.5,43.89h0Z"/><path class="cls-2" d="m252.51,136.73c7.2-13.82,8.25-30.68,1.98-45-4.65-10.68-10.89-21.76-9-33.88,3.68-23.98,25.71-40.75,46.84-49.53,10.86-4.51,22.53-7.12,34.24-7.8-15.48,1.64-30.7,6.3-44.2,14.08-13.31,7.65-25.67,18.24-31.98,32.5-7.71,17.38-1.39,28.13,5.37,44.12,6.07,14.6,4.7,31.93-3.26,45.51h0Z"/></g></svg>