<?xml version="1.0" encoding="UTF-8"?><svg id="Layer_2" xmlns="http://www.w3.org/2000/svg" viewBox="0 0 1784.28 583.45"><defs><style>.cls-1{stroke:#cb8472;}.cls-1,.cls-2,.cls-3,.cls-4,.cls-5,.cls-6,.cls-7,.cls-8,.cls-9,.cls-10,.cls-11,.cls-12,.cls-13,.cls-14,.cls-15,.cls-16,.cls-17{fill:none;stroke-miterlimit:10;}.cls-2{stroke:#99788c;}.cls-3{stroke:#a87b84;}.cls-4{stroke:#bd8179;}.cls-5{stroke:#847297;}.cls-6{stroke:#c48375;}.cls-7{stroke:#a17a88;}.cls-8{stroke:#927690;}.cls-9{stroke:#766f9f;}.cls-10{stroke:#d9886a;}.cls-11{stroke:#af7d81;}.cls-12{stroke:#6f6da2;}.cls-13{stroke:#686ba6;}.cls-14{stroke:#7d709b;}.cls-15{stroke:#b67f7d;}.cls-16{stroke:#8b7493;}.cls-17{stroke:#d2866e;}</style></defs><g id="Layer_1-2"><path class="cls-10" d="m.42,566.16c27.74-42.2,79.79-62.28,130-67.73s100.93,1.11,151.4-.73c7.36-.27,76.59-9.72,139.7-48.96,100.92-62.75,173.83-195.56,141.58-235.36-39.12-48.29-232.5,40.9-228,64,3.28,16.81,111.48-.74,124,36,9.13,26.8-39.57,62.18-30.61,74.85,8.78,12.41,62.15-12.64,69.31-14.76,153.28-45.35,318.19-50.74,474.1-15.49,47.84,10.82,101.54,31.65,116.27,78.43,13.91,44.18-21.84,96.31-67.99,100.22-46.15,3.92-89.88-40.24-86.52-86.44,4.18-57.48,64.86-93.02,120.58-107.76,99.65-26.37,205.79-19.45,305.46-45.73,47.71-12.58,96.08-34.92,122.71-76.46,26.63-41.55,21.77-105.68-20.54-131.08-32.16-19.31-85.49.82-83.23,38.27,1.69,27.98,31.85,46.21,59.77,48.71,63.94,5.71,118.64-42.11,165.93-85.53,31.65-29.06,91.71-53.23,168.8-76.25"/><path class="cls-17" d="m2.46,564.11c28.07-38.92,78.72-57.31,127.44-62.12,49.3-4.72,98.75,1.55,147.65-.25,9.34-.36,75.99-9.78,136.42-47.22,14.55-8.97,28.39-19.38,41.32-30.69,43.89-38.42,78.32-87.42,96.02-132.06,11.18-28.18,12.16-52.03,2.79-66.04-33.69-50.34-211.73,31.08-207.95,52.46,2.66,15.05,98.14.72,106.69,37.94,6.16,26.85-40.72,61.9-31.99,75.64,8.44,13.28,60.16-8.15,68.76-9.71,17.87-3.24,35.64-8.27,53.61-12.36,43.03-9.77,86.13-18.49,128.77-25.04,43.03-6.61,84.19-8.44,128.08-10.99,55.72-3.23,109.02.7,161.64,11.96,48.09,10.29,101.45,33.9,116.25,81.85,1.94,6.29,2.97,12.73,3.11,19.16.83,37.17-28.67,79.38-69.2,85.01-2.13.3-4.26.46-6.39.54-21.96.83-43.38-8.66-59.12-24.24-15.67-15.49-25.49-37.13-24.23-59.47.7-12.33,5.14-23.63,11.34-32.94,6.26-9.42,14.02-17.37,23.19-24.11,30.96-22.76,73.17-39.88,110.32-46.26,8.68-1.49,17.14-2.91,25.22-2.37,17.35,1.16,29.12,2.81,45.99,1.47,32.37-2.56,72.38-12.52,101.08-23.28,13.1-4.91,23.75-8.49,35.99-11.23,13.34-2.98,25.95-6.55,38.59-9.35,4.85-1.08,9.26-1.61,15.63-1.58,4.81.01,10.67-.61,16.32-1.6,3.05-.53,6.09-1.12,9.14-1.74,47.54-9.8,95.67-32.11,130.04-59.97,5.05-4.11,10.18-7.99,13.74-12.22,15.04-17.91,18.36-43.11,13.58-66.12-4.49-21.54-16.45-42.3-36.32-54.88-11.88-7.49-26.57-9.73-40.02-7.63-21.8,3.4-40.77,17.92-39.85,38.54,1.14,24.99,28.93,40.92,54.71,41.83,58.81,2.09,109.54-46.53,156.17-89.02,32.39-29.35,93.29-50.33,166.82-71.41"/><path class="cls-1" d="m4.5,562.06c28.4-35.65,77.62-52.48,124.88-56.52,48.39-4.13,96.56,1.98,143.9.23,11.32-.46,75.32-9.96,133.14-45.47,14.29-8.78,27.81-18.88,40.34-29.82,41.65-36.43,74.41-82.15,93.95-128.52,11.37-26.98,11.97-49.81,4.39-63.88-28.49-52.97-190.93,21.26-187.89,40.92,2.05,13.29,84.82,2.06,89.37,39.88,3.23,26.82-41.86,61.61-33.37,76.42s58.07-3.71,68.21-4.65c18.11-1.68,36.27-6.75,54.52-10.8,43.79-9.7,87.05-20.27,129.09-29.42,42.84-9.33,81.67-12.03,126.08-19.12,56.69-9.05,108.69-8.48,160.42,1.96,48.35,9.75,101.36,36.14,116.22,85.27,1.94,6.41,3.02,12.96,3.19,19.49.95,35.36-26,80.68-67.37,88.61-2.12.41-4.26.65-6.39.84-22.01,1.87-43.95-6.4-60.46-21.36-16.44-14.88-27.09-36.66-26.12-59.38.59-13.77,6.66-26.25,14.63-35.54,8.02-9.39,17.51-16.6,28.36-22.27,38.59-20.17,86.37-37.24,126.13-41.05,9.78-.94,19.07-.97,27.5.75,19.06,3.89,26.3,11.73,43.94,11.36,32.88-.69,80.92-17.94,106.08-36.23,11.7-8.5,18.55-13.93,28.3-17.89s17.1-8.64,25.15-11.14c3.06-.96,5.26-.73,11.43.75,4.65,1.09,11.4.99,17.76.22,3.43-.41,6.86-.9,10.28-1.45,53.5-8.63,107.67-34.87,148.66-58.56,6.02-3.5,11.84-6.82,16.2-9.37,13.39-16.65,17.62-37.3,11.92-58.25-5.37-19.62-17.57-39.79-36.86-52.67-11.5-7.62-25.52-10.47-38.25-9.16-20.62,2.13-38.71,14.62-38.25,32.72.6,22.01,26.04,35.63,49.65,34.96,53.73-1.53,100.34-51.08,146.42-92.52,33.06-29.73,94.87-47.42,164.83-66.56"/><path class="cls-6" d="m6.54,560.01c28.73-32.37,76.54-47.57,122.32-50.91,47.48-3.47,94.38,2.52,140.16.7,13.3-.53,74.69-10.06,129.86-43.73,14.05-8.57,27.23-18.37,39.37-28.94,39.41-34.43,70.46-76.87,91.87-124.98,11.49-25.81,11.83-47.73,6-61.72-23.41-56.21-170.09,11.45-167.84,29.37,1.45,11.54,71.57,3.32,72.06,41.82.34,26.74-43,61.32-34.75,77.21,7.78,15,56.24,3.16,67.66.41,17.77-4.28,36.9-5.23,55.43-9.24,44.54-9.63,87.98-22.08,129.41-33.79,42.67-12.07,79.16-15.64,124.08-27.24,57.66-14.89,108.37-17.67,159.2-8.05,48.62,9.21,101.27,38.39,116.2,88.7,1.94,6.53,3.06,13.18,3.27,19.81,1.06,33.55-23.31,81.93-65.55,92.22-2.11.51-4.25.85-6.39,1.14-22.06,2.91-44.52-4.14-61.8-18.49-17.21-14.28-28.72-36.19-28.01-59.29.47-15.2,8.18-28.87,17.92-38.13,9.79-9.36,21.08-15.77,33.54-20.43,46.45-17.38,99.62-34.46,141.94-35.83,10.89-.35,21.02.59,29.79,3.87,20.78,7.79,23.48,20.63,41.9,21.26,33.38,1.13,89.45-23.56,111.07-49.17,10.29-12.19,12.64-21.24,20.61-24.56,4.75-6.41,8.27-10.7,11.71-12.92,1.29-.83,1.26.17,7.23,3.07,4.49,2.19,12.13,2.58,19.2,2.04,3.81-.29,7.62-.68,11.43-1.16,59.46-7.46,119.67-37.63,167.28-57.15,6.98-2.88,13.83-5.37,18.65-6.51,13.21-14.24,16.88-31.48,10.26-50.38-6.24-17.69-18.66-37.32-37.39-50.46-11.09-7.78-24.46-11.21-36.49-10.68-19.43.85-36.67,11.32-36.66,26.89.02,19.02,23.17,30.34,44.6,28.08,48.7-5.14,91.2-55.54,136.67-96.01,33.78-30.06,96.45-44.52,162.85-61.71"/><path class="cls-4" d="m8.59,557.96c29.05-29.1,75.46-42.64,119.76-45.3,46.58-2.79,92.19,2.97,136.41,1.18,15.27-.62,74.06-10.16,126.58-41.98,13.81-8.37,26.66-17.87,38.39-28.07,37.16-32.44,66.45-71.6,89.8-121.45,11.55-24.66,11.8-45.79,7.61-59.56-18.27-60.04-149.2,1.64-147.79,17.83.86,9.8,58.39,4.51,54.74,43.76-2.47,26.61-44.12,61.01-36.13,78,7.46,15.86,53.99,8.02,67.11,5.46,18.07-3.52,37.53-3.71,56.34-7.69,45.3-9.56,88.92-23.92,129.73-38.17s76.65-19.27,122.08-35.37c58.64-20.77,108.05-26.89,157.98-18.05s101.18,40.64,116.17,92.12c1.94,6.65,3.11,13.41,3.35,20.14,1.15,31.74-20.62,83.13-63.72,95.83-2.1.62-4.24,1.05-6.39,1.44-22.11,3.94-45.09-1.88-63.14-15.62-17.98-13.67-30.37-35.73-29.89-59.2.34-16.64,9.7-31.49,21.21-40.73,11.55-9.33,24.67-14.88,38.71-18.59,54.41-14.39,113.02-34.25,157.75-30.62,11.96.97,22.97,2.2,32.07,7,22.46,11.82,20.64,29.5,39.86,31.15,33.85,2.89,97.87-29.3,116.07-62.11,8.83-15.93,7.14-27.37,12.92-31.23.52-7.87-.53-12.86-1.73-14.71-.48-.75-2.73,1.05,3.02,5.4,4.32,3.27,12.87,4.18,20.64,3.86,4.19-.17,8.38-.46,12.57-.87,65.42-6.29,131.67-40.4,185.89-55.73,7.95-2.27,15.82-3.91,21.11-3.66,13.03-11.84,16.15-25.67,8.59-42.52-7.11-15.76-19.78-34.82-37.93-48.24-10.7-7.91-23.4-11.95-34.72-12.21-18.24-.42-34.62,8.03-35.06,21.06-.55,16.03,20.32,25.05,39.54,21.2,43.74-8.75,82.07-60,126.91-99.51,34.5-30.39,98.03-41.61,160.87-56.86"/><path class="cls-15" d="m10.63,555.91c29.38-25.82,74.39-37.71,117.2-39.69,45.68-2.11,90,3.4,132.66,1.66,17.25-.71,73.44-10.25,123.3-40.23,13.57-8.16,26.08-17.36,37.41-27.19,34.92-30.44,62.38-66.33,87.73-117.91,11.56-23.53,14.33-44.69,9.21-57.4-.83-65.66-128.23-8.14-127.73,6.29.28,8.1,45.32,5.66,37.43,45.71-5.21,26.46-45.25,60.71-37.51,78.78,7.15,16.7,51.66,12.65,66.56,10.52,18.41-2.64,38.16-2.19,57.26-6.13,46.06-9.49,89.85-25.79,130.04-42.54,42.34-17.65,74.14-22.93,120.08-43.49,59.62-26.68,107.74-36.11,156.76-28.06,49.17,8.08,101.09,42.88,116.15,95.54,1.94,6.77,3.16,13.64,3.43,20.47,1.22,29.93-17.93,84.28-61.9,99.43-2.09.72-4.24,1.25-6.39,1.74-22.16,4.98-45.67.38-64.48-12.74-18.76-13.06-32.04-35.26-31.78-59.1.19-18.08,11.22-34.11,24.5-43.33,13.32-9.3,28.27-13.94,43.89-16.75,62.4-11.22,126.15-28.59,173.55-25.41,13.11.88,24.88,3.85,34.36,10.12,24.09,15.93,17.8,38.35,37.81,41.04,34.33,4.61,106.19-35.06,121.07-75.05,7.32-19.68,1.64-33.5,5.23-37.89-3.71-9.32-9.44-14.94-15.17-16.5-2.29-.62-6.73,1.93-1.18,7.72,4.16,4.35,13.6,5.77,22.08,5.68,4.57-.05,9.15-.25,13.72-.57,71.37-5.12,143.67-43.16,204.51-54.32,8.91-1.66,17.81-2.45,23.56-.81,12.85-9.44,15.41-19.85,6.93-34.65-7.99-13.84-20.9-32.32-38.47-46.03-10.31-8.04-22.33-12.69-32.95-13.74-17.05-1.68-32.57,4.72-33.47,15.23-1.12,13.04,17.51,19.74,34.48,14.33,38.88-12.41,72.94-64.45,117.16-103.01,35.22-30.71,99.61-38.71,158.88-52.02"/><path class="cls-11" d="m12.67,553.86c29.71-22.55,73.31-32.77,114.64-34.09,44.78-1.42,87.81,3.84,128.91,2.14,19.23-.8,72.83-10.34,120.02-38.49,13.33-7.95,25.51-16.86,36.44-26.32,32.68-28.45,58.25-61.09,85.65-114.37,11.53-22.41,14.72-42.75,10.82-55.24,6.82-69.13-107.13-17.87-107.68-5.25-.28,6.46,32.35,6.82,20.12,47.65-7.89,26.31-46.36,60.4-38.89,79.57,6.84,17.55,49.41,13.29,66.01,15.57,18.65,2.56,38.79-.66,58.17-4.57,46.81-9.42,90.78-27.69,130.36-46.92,42.17-20.48,71.63-26.61,118.08-51.62,60.59-32.62,107.43-45.36,155.54-38.06,49.44,7.5,101,45.13,116.12,98.96,1.94,6.89,3.2,13.87,3.51,20.8,1.28,28.12-15.25,85.38-60.07,103.04-2.08.82-4.23,1.44-6.39,2.04-22.2,6.02-46.24,2.64-65.82-9.87-19.53-12.46-33.72-34.8-33.67-59.01.04-19.52,12.74-36.73,27.78-45.93,15.08-9.28,31.87-12.98,49.07-14.91,70.38-7.92,139.41-25.55,189.36-20.2,14.22,1.53,26.78,5.51,36.64,13.24,25.65,20.09,14.96,47.18,35.77,50.93,34.81,6.28,114.44-40.82,126.07-87.99,5.78-23.43-3.87-39.63-2.46-44.56-7.93-10.78-18.3-17.01-28.61-18.29-4.08-.5-10.71,2.8-5.38,10.05,4.01,5.42,14.34,7.37,23.52,7.5,4.95.07,9.91-.03,14.86-.28,77.33-3.95,155.67-45.92,223.13-52.91,9.88-1.05,19.8-.99,26.02,2.05,12.67-7.03,14.7-14.06,5.27-26.78-8.84-11.93-22.02-29.81-39.01-43.82-9.92-8.18-21.26-13.42-31.18-15.26-15.84-2.94-30.53,1.42-31.88,9.4-1.69,10.04,14.74,14.4,29.43,7.45,34.11-16.14,63.83-68.89,107.41-106.5,35.95-31.03,101.19-35.8,156.9-47.17"/><path class="cls-3" d="m14.71,551.81c30.04-19.27,72.24-27.82,112.07-28.48,43.88-.72,85.63,4.27,125.16,2.61,21.21-.89,72.22-10.42,116.74-36.74,13.09-7.74,24.93-16.36,35.46-25.44,30.43-26.45,54.05-55.87,83.58-110.83,11.45-21.31,15.11-40.82,12.43-53.08,14.48-72.6-88.43-27.6-87.63-16.79-1.99,4.6,19.48,8,2.8,49.59-10.5,26.18-47.48,60.09-40.27,80.36,6.54,18.39,47.26,17.36,65.46,20.63s39.42.86,59.08-3.01c47.57-9.35,91.7-29.62,130.68-51.3,41.99-23.34,69.1-30.3,116.07-59.74,61.54-38.57,107.12-54.61,154.32-48.06,49.72,6.9,100.91,47.37,116.1,102.39,1.94,7.01,3.24,14.1,3.6,21.13,1.32,26.31-12.58,86.43-58.25,106.65-2.07.92-4.22,1.64-6.39,2.33-22.25,7.06-46.81,4.9-67.16-7-20.3-11.85-35.42-34.34-35.56-58.92-.12-20.96,14.26-39.35,31.07-48.53,16.85-9.25,35.46-11.99,54.24-13.07,78.34-4.51,152.66-22.47,205.17-14.99,15.33,2.19,28.66,7.18,38.93,16.36,27.16,24.27,12.13,55.98,33.73,60.82,35.29,7.91,122.64-46.54,131.06-100.93,4.21-27.16-9.37-45.76-10.15-51.23-12.16-12.23-27.15-19.08-42.05-20.07-5.86-.38-14.7,3.68-9.58,12.38,3.85,6.5,15.07,8.96,24.96,9.32,5.34.19,10.67.19,16.01.01,83.29-2.78,167.67-48.68,241.75-51.49,10.84-.43,21.79.47,28.47,4.9,12.49-4.63,13.96-8.25,3.61-18.92-9.71-10.01-23.14-27.3-39.54-41.6-9.53-8.3-20.19-14.14-29.42-16.79-14.63-4.19-28.5-1.91-30.28,3.57-2.29,7.02,12,8.99,24.37.57,29.42-20.01,54.72-73.32,97.65-110,36.69-31.34,102.77-32.9,154.91-42.32"/><path class="cls-7" d="m16.76,549.76c30.36-16,71.17-23.63,109.51-22.87,42.98.85,83.44,4.7,121.41,3.09,23.19-.98,71.62-10.48,113.47-35,12.85-7.53,24.37-15.83,34.48-24.57,28.24-24.4,49.78-50.69,81.5-107.29,11.34-20.23,15.5-38.88,14.03-50.92,22.14-76.08-67.84-37.38-67.57-28.33-2.74,2.86,6.68,9.23-14.51,51.53-13.06,26.08-48.58,59.78-41.66,81.14,6.24,19.24,45.13,21.35,64.91,25.69s40.05,2.38,59.99-1.45c48.33-9.28,92.6-31.57,131-55.67,41.79-26.23,66.57-34,114.07-67.87,62.48-44.54,106.82-63.89,153.1-58.07,50.01,6.29,100.82,49.62,116.07,105.81,1.94,7.13,3.28,14.33,3.68,21.46,1.35,24.5-9.94,87.45-56.43,110.26-2.06,1.01-4.22,1.84-6.39,2.63-22.3,8.1-47.38,7.17-68.49-4.13-21.07-11.25-37.12-33.87-37.44-58.82-.29-22.4,15.78-41.97,34.36-51.13,18.61-9.22,39.06-12.1,59.42-11.23,86.19,3.67,165.89-19.35,220.98-9.77,16.43,2.86,30.52,8.85,41.21,19.48,28.63,28.46,9.3,64.76,31.69,70.72,35.78,9.51,130.82-52.24,136.06-113.87,2.63-30.88-14.88-51.89-17.83-57.89-16.39-13.69-36-21.17-55.5-21.86-7.65-.26-18.69,4.56-13.79,14.7,3.69,7.58,15.8,10.56,26.4,11.14,5.72.31,11.43.41,17.16.3,89.25-1.62,179.67-51.45,260.37-50.08,11.81.18,23.78,1.93,30.93,7.76,12.31-2.23,13.21-2.44,1.95-11.05-10.59-8.09-24.26-24.79-40.08-39.39-9.14-8.43-19.11-14.86-27.65-18.31-13.41-5.42-26.47-5.29-28.69-2.26-2.89,3.93,9.25,3.5,19.32-6.3,24.74-24.07,45.62-77.75,87.9-113.49,37.43-31.64,104.35-29.99,152.93-37.47"/><path class="cls-2" d="m18.8,547.71c30.69-12.72,70.09-17.89,106.95-17.26,42.09.71,81.25,5.13,117.66,3.57,25.16-1.08,71.02-10.54,110.19-33.25,12.61-7.31,23.8-15.33,33.51-23.69,26-22.41,45.42-45.55,79.43-103.76,11.2-19.16,15.89-36.94,15.64-48.76,29.8-79.55-47.26-47.16-47.52-39.88-3.5,1.11-6.07,10.52-31.82,53.47-15.6,26.01-49.68,59.47-43.04,81.93,5.94,20.08,43.04,25.29,64.36,30.74,19.17,4.9,40.68,3.9,60.9.1,49.09-9.21,93.49-33.54,131.32-60.05,41.58-29.14,64.02-37.71,112.07-75.99,63.41-50.51,106.52-73.18,151.89-68.07,50.29,5.66,100.74,51.87,116.05,109.23,1.94,7.25,3.32,14.56,3.76,21.79,1.37,22.69-7.31,88.43-54.6,113.86-2.06,1.11-4.21,2.04-6.39,2.93-22.35,9.14-47.95,9.43-69.83-1.25-21.84-10.64-38.83-33.41-39.33-58.73-.47-23.83,17.3-44.59,37.65-53.73,20.37-9.19,42.62-9.97,64.59-9.39,94.16,2.5,179.11-16.21,236.78-4.56,17.53,3.54,32.37,10.51,43.5,22.6,30.07,32.66,6.48,73.53,29.64,80.61,36.29,11.09,138.99-57.91,141.06-126.81,1.04-34.59-19.54-58.77-25.52-64.56-18.38-17.79-44.85-23.26-68.94-23.65-9.43-.15-22.68,5.44-17.99,17.03,3.53,8.67,16.54,12.16,27.84,12.96,6.1.43,12.2.62,18.3.6,95.2-.45,191.67-54.21,278.99-48.67,12.77.79,25.77,3.38,33.38,10.61,12.13.17,12.47,3.37.29-3.18-11.47-6.17-25.38-22.27-40.62-37.17-8.75-8.56-18.03-15.57-25.88-19.84-12.2-6.64-24.29-8.74-27.09-8.09-3.31.77,6.45-2.08,14.26-13.18,19.93-28.33,36.53-82.17,78.15-116.99,38.17-31.94,105.93-27.09,150.95-32.63"/><path class="cls-8" d="m20.84,545.67c31.02-9.45,69.02-12.9,104.39-11.65,41.2,1.45,79.06,5.55,113.91,4.04,27.14-1.17,70.43-10.59,106.91-31.51,12.38-7.1,23.22-14.82,32.53-22.82,23.76-20.41,40.97-40.47,77.35-100.22,11.03-18.12,14.33-35.33,17.25-46.6,22.84-88.17-26.68-56.95-27.47-51.42-4.25-.63-18.78,11.87-49.14,55.41-18.11,25.98-50.78,59.16-44.42,82.72,5.65,20.92,40.96,29.17,63.81,35.8,19.39,5.63,41.31,5.43,61.81,1.66,49.84-9.13,94.37-35.53,131.63-64.42,41.34-32.06,61.46-41.43,110.07-84.12,64.32-56.49,106.22-82.48,150.67-78.07,50.58,5.02,100.65,54.11,116.03,112.65,1.95,7.37,3.36,14.78,3.84,22.12,1.37,20.88-4.72,89.37-52.78,117.47-2.05,1.2-4.2,2.23-6.39,3.23-22.39,10.17-48.52,11.69-71.17,1.62-22.62-10.03-40.55-32.94-41.22-58.64s18.82-47.21,40.94-56.33c22.14-9.16,46.18-8.95,69.77-7.55,102.02,6.08,192.31-13.04,252.59.65,18.63,4.23,34.22,12.18,45.78,25.72,31.49,36.85,3.67,82.28,27.6,90.5,36.8,12.64,147.15-63.57,146.05-139.75-.55-38.3-25.28-64.83-33.21-71.23-23.26-18.75-53.71-25.35-82.38-25.44-11.22-.03-26.67,6.32-22.19,19.35,3.37,9.75,17.27,13.75,29.28,14.78,6.48.56,12.96.84,19.45.89,101.16.72,203.67-56.97,297.61-47.25,13.74,1.41,27.75,4.84,35.84,13.46,11.95,2.58,11.72,9.18-1.37,4.68-12.35-4.24-26.51-19.75-41.16-34.96-8.36-8.68-16.96-16.26-24.11-21.37-10.99-7.84-22.06-11.94-25.5-13.92-3.65-2.1,3.56-7.69,9.2-20.06,14.92-32.69,27.44-86.58,68.39-120.48s107.51-24.18,148.96-27.78"/><path class="cls-16" d="m22.88,543.62c31.35-6.17,67.95-7.9,101.83-6.05,40.3,2.21,76.88,5.98,110.16,4.52,29.12-1.27,69.84-10.63,103.63-29.76,12.15-6.88,22.65-14.32,31.55-21.94,21.52-18.42,36.43-35.46,75.28-96.68,10.84-17.08,15.04-33.5,18.85-44.44,32.08-92.13-6.1-66.73-7.41-62.96-5-2.38-31.46,13.27-66.45,57.35-20.62,25.98-51.87,58.84-45.8,83.5,5.36,21.76,38.92,33,63.26,40.85,19.63,6.34,41.94,6.95,62.72,3.22,50.6-9.06,95.22-37.52,131.95-68.8,41.09-35,58.9-45.14,108.07-92.24,65.23-62.48,105.92-91.8,149.45-88.08,50.87,4.35,100.56,56.36,116,116.08,1.95,7.49,3.39,15.01,3.92,22.45,1.36,19.07-2.15,90.29-50.95,121.08-2.04,1.29-4.2,2.43-6.39,3.53-22.44,11.21-49.1,13.95-72.51,4.49-23.39-9.43-42.27-32.48-43.11-58.55-.86-26.71,20.34-49.83,44.23-58.93,23.9-9.13,49.74-7.93,74.95-5.71,109.87,9.68,205.51-9.86,268.4,5.86,19.72,4.93,36.05,13.85,48.07,28.84,32.89,41.04.87,91.01,25.56,100.39,37.34,14.18,155.31-69.22,151.05-152.69-2.14-41.99-30.95-70.86-40.9-77.9-27.94-19.76-62.56-27.43-95.82-27.22-13,.09-30.67,7.2-26.4,21.68,3.21,10.83,18.01,15.35,30.72,16.6,6.86.68,13.72,1.06,20.59,1.18,107.12,1.89,215.68-59.74,316.23-45.84,14.7,2.02,29.74,6.3,38.29,16.32,11.78,4.98,10.98,15-3.04,12.55-13.23-2.31-27.64-17.23-41.7-32.75-7.98-8.81-15.9-16.95-22.35-22.89-9.8-9.03-20.01-15.14-23.91-19.75-4.2-4.97.59-13.3,4.15-26.93,9.66-37.05,18.36-90.98,58.64-123.98s109.09-21.28,146.98-22.93"/><path class="cls-5" d="m24.93,541.57c31.67-2.9,66.87-2.89,99.27-.44,39.4,2.98,74.69,6.35,106.41,5,31.09-1.43,69.26-10.66,100.35-28.01,11.92-6.65,22.07-13.81,30.58-21.07,19.27-16.43,31.76-30.53,73.21-93.14,10.63-16.07,15.78-31.59,20.46-42.28,41.86-95.54,14.49-76.52,12.64-74.5-5.75-4.12-44.14,14.72-83.77,59.29-23.13,26.01-52.96,58.53-47.18,84.29,5.07,22.6,36.91,36.78,62.71,45.91,19.89,7.04,42.57,8.47,63.63,4.78,51.36-8.99,96.06-39.52,132.27-73.17,40.82-37.94,56.33-48.86,106.07-100.37,66.12-68.47,105.62-101.14,148.23-98.08,51.16,3.67,100.47,58.6,115.98,119.5,1.95,7.62,3.41,15.24,4,22.78,1.34,17.27.39,91.18-49.13,124.69-2.04,1.38-4.19,2.63-6.39,3.83-22.49,12.25-49.67,16.21-73.85,7.37-24.16-8.82-44-32.01-44.99-58.45-1.06-28.14,21.86-52.45,47.52-61.53,25.67-9.1,53.3-6.9,80.12-3.87,117.69,13.3,218.68-6.67,284.21,11.07,20.8,5.63,37.89,15.51,50.35,31.96,34.27,45.23-1.93,99.74,23.52,110.29,37.88,15.7,163.47-74.85,156.05-165.63-3.74-45.69-36.58-76.88-48.59-84.56-32.51-20.81-71.41-29.52-109.26-29.01-14.79.2-34.66,8.08-30.6,24,3.05,11.91,18.74,16.94,32.16,18.42,7.24.8,14.49,1.28,21.74,1.47,113.08,3.06,227.68-62.5,334.85-44.42,15.67,2.63,29.95,9.42,40.74,19.17,10.2,9.21,10.23,20.85-4.7,20.42-14.11-.36-28.77-14.71-42.23-30.53-7.6-8.93-14.85-17.63-20.58-24.42-8.62-10.21-17.97-18.39-22.31-25.58-4.78-7.91-2.43-18.87-.91-33.81,4.22-41.31,9.28-95.38,48.89-127.48s110.67-18.37,144.99-18.08"/><path class="cls-14" d="m26.97,539.52c32,.38,65.8,2.14,96.71,5.17,38.5,3.77,72.5,6.78,102.66,5.48,33.07-1.53,68.69-10.67,97.07-26.27,11.69-6.42,21.5-13.31,29.6-20.19,17.02-14.44,26.98-25.71,71.13-89.6,10.41-15.07,16.51-29.62,22.07-40.12,52.02-98.38,35.07-86.3,32.7-86.04-6.51-5.87-56.81,16.22-101.08,61.24-25.64,26.06-54.05,58.22-48.56,85.08,4.79,23.44,34.93,40.53,62.16,50.97,20.18,7.73,43.2,9.99,64.54,6.34,52.11-8.92,96.89-41.53,132.59-77.55,40.53-40.9,53.75-52.58,104.07-108.49,67-74.45,105.32-110.49,147.01-108.08,51.45,2.96,100.38,60.85,115.95,122.92,1.95,7.74,3.43,15.47,4.08,23.11,1.31,15.46,2.91,92.06-47.3,128.29-2.04,1.47-4.19,2.83-6.39,4.13-22.54,13.29-50.24,18.47-75.19,10.24-24.93-8.22-45.73-31.54-46.88-58.36-1.27-29.58,23.38-55.07,50.8-64.12,27.43-9.07,56.84-5.87,85.3-2.03,125.49,16.94,231.85-3.46,300.01,16.29,21.89,6.34,39.72,17.17,52.64,35.08,35.65,49.42-4.71,108.45,21.47,120.18,38.44,17.22,171.63-80.48,161.05-178.57-5.33-49.38-42.18-82.89-56.28-91.23-36.99-21.89-80.26-31.61-122.7-30.8-16.57.32-38.65,8.97-34.8,26.33,2.89,12.99,19.47,18.54,33.6,20.24,7.62.92,15.25,1.49,22.88,1.76,119.03,4.23,239.68-65.26,353.47-43.01,16.63,3.24,32.34,10.36,43.2,22.03,10.25,11,9.49,26.67-6.36,28.28-14.98,1.57-29.91-12.19-42.77-28.32-7.22-9.05-13.81-18.31-18.81-25.95-7.46-11.39-15.93-21.67-20.72-31.41-5.35-10.88-5.49-24.38-5.97-40.69-1.32-45.43.21-99.76,39.13-130.97,41.22-33.05,112.25-15.47,143.01-13.24"/><path class="cls-9" d="m29.01,537.47c32.33,3.65,64.72,7.19,94.15,10.78,37.6,4.58,70.31,7.22,98.92,5.95,35.05-1.62,68.12-10.67,93.79-24.52,11.46-6.18,20.92-12.81,28.62-19.32,14.77-12.46,22.05-21.01,69.06-86.07,10.18-14.08,17.24-27.59,23.67-37.96,62.42-100.66,55.36-95.63,52.75-97.58-8.42-6.3-69.48,17.76-118.39,63.18-28.15,26.14-55.08,57.9-49.94,85.86,4.56,24.28,32.97,44.25,61.61,56.02,20.48,8.42,43.83,11.51,65.45,7.89,52.87-8.85,97.69-43.54,132.9-81.93,40.22-43.85,51.07-56.37,102.06-116.62,67.76-80.54,105.02-119.85,145.79-118.09,51.74,2.24,100.29,63.1,115.93,126.34,1.95,7.86,3.44,15.7,4.16,23.44,1.27,13.66,5.4,92.91-45.48,131.9-2.04,1.56-4.18,3.02-6.39,4.43-22.59,14.33-50.81,20.73-76.53,13.11-25.71-7.61-47.46-31.08-48.77-58.27-1.49-31.01,24.9-57.7,54.09-66.72,29.2-9.04,60.39-4.84,90.47-.19,133.27,20.59,245.01-.25,315.82,21.5,22.97,7.05,41.54,18.83,54.92,38.2,37.01,53.6-7.48,117.16,19.43,130.07,39.01,18.72,179.6-86.08,166.04-191.51-7.02-53.05-47.76-88.9-63.96-97.9-41.43-23.01-89.11-33.7-136.14-32.59-18.36.44-42.64,9.85-39.01,28.66,2.72,14.07,20.21,20.14,35.04,22.06,8,1.04,16.01,1.71,24.03,2.06,124.99,5.4,251.68-68.03,372.08-41.6,17.6,3.86,34.78,11.37,45.65,24.88s8.76,32.48-8.02,36.15c-15.86,3.5-31.05-9.66-43.31-26.11-6.84-9.17-12.78-18.99-17.04-27.47-6.32-12.57-13.88-24.95-19.13-37.24-5.91-13.86-8.56-29.84-11.02-47.56-6.87-49.42-8.86-104.15,29.38-134.47,42-33.3,113.83-12.56,141.02-8.39"/><path class="cls-12" d="m31.05,535.42c32.66,6.93,63.63,12.25,91.59,16.39,36.69,5.42,68.12,7.66,95.17,6.43,37.02-1.72,67.56-10.66,90.51-22.78,11.24-5.94,20.33-12.33,27.65-18.44,12.49-10.5,16.96-16.45,66.98-82.53,9.93-13.12,17.95-25.5,25.28-35.8,72.92-102.47,76.06-105.7,72.8-109.13-8.48-8.93-82.17,19.33-135.71,65.12-30.67,26.23-56.19,57.59-51.33,86.65,4.25,25.13,31.04,47.93,61.06,61.08,20.8,9.11,44.47,13.04,66.36,9.45,53.63-8.78,98.49-45.55,133.22-86.3,39.9-46.81,48.53-60.05,100.06-124.74,68.68-86.48,104.72-129.23,144.57-128.09,52.02,1.48,100.2,65.34,115.9,129.76,1.95,7.98,3.43,15.94,4.24,23.77,1.22,11.86,7.85,93.75-43.66,135.51-2.04,1.65-4.17,3.22-6.39,4.73-22.63,15.36-51.38,22.99-77.86,15.98-26.48-7-49.25-30.61-50.65-58.18-1.78-32.45,26.42-60.32,57.38-69.32,30.96-9.01,63.93-3.8,95.65,1.65,141.04,24.25,258.16,2.97,331.63,26.71,24.04,7.77,43.37,20.48,57.21,41.32,38.37,57.78-10.24,125.85,17.39,139.96,39.6,20.22,187.86-91.71,171.04-204.45-8.56-56.74-53.34-94.91-71.65-104.56-45.84-24.16-97.96-35.79-149.58-34.38-20.14.55-46.63,10.73-43.21,30.98,2.56,15.16,20.94,21.73,36.48,23.88,8.38,1.16,16.78,1.93,25.17,2.35,130.95,6.57,263.68-70.79,390.7-40.18,18.56,4.47,37.23,12.45,48.11,27.73,10.62,14.92,8.02,38.3-9.68,44.02-16.73,5.42-32.21-7.12-43.85-23.89-6.47-9.28-11.76-19.68-15.28-29-5.19-13.76-11.84-28.24-17.53-43.07-6.49-16.83-11.61-35.26-16.08-54.44-12.41-53.33-17.88-108.47,19.63-137.96,42.83-33.49,115.41-9.66,139.04-3.54"/><path class="cls-13" d="m33.09,533.37c182.86,56.57,260.31,18.55,294.35-9.7,10.25-8.51,11.69-12.08,64.91-78.99,107.47-135.11,124.09-148.8,119.74-154.31-13.77-17.44-218.36,71.52-205.73,154.5,6.62,43.47,72.7,85.96,127.78,77.14,54.39-8.71,99.27-47.56,133.54-90.68,39.56-49.77,45.98-63.72,98.06-132.87,69.61-92.41,104.41-138.62,143.35-138.1,58.76.79,111.84,85.11,120.2,157.29,1.21,10.45,11.01,101.3-48.22,144.14-22.68,16.4-51.95,25.25-79.2,18.86s-50.94-30.14-52.54-58.08c-1.95-33.88,27.94-62.94,60.67-71.92s67.47-2.77,100.83,3.49c197.89,37.14,349.27-13.55,406.93,76.36,39.73,61.95-13,134.55,15.35,149.86,40.2,21.71,196.12-97.34,176.04-217.39-10.11-60.43-58.9-100.92-79.34-111.23-50.22-25.32-106.81-37.88-163.03-36.16-21.93.67-50.63,11.61-47.41,33.31,2.4,16.24,21.68,23.33,37.92,25.7,145.4,21.28,293.43-73.14,435.64-36.13,19.53,5.08,39.69,13.59,50.56,30.59,10.88,16.99,7.28,44.11-11.34,51.88-27.31,11.4-50.12-23.65-57.89-52.2-21.59-79.34-89.03-203.74-27.2-251.67,43.58-33.78,116.99-6.75,137.06,1.31"/></g></svg>