<?xml version="1.0" encoding="UTF-8"?><svg id="Layer_2" xmlns="http://www.w3.org/2000/svg" viewBox="0 0 40 34.64"><defs><style>.cls-1{fill:#686ba6;}</style></defs><g id="Layer_1-2"><path class="cls-1" d="m36.91,34.61c-2.73-5.4-5.46-10.89-8.18-16.46-2.26-4.63-4.47-9.23-6.63-13.79-4.48,7.06-8.96,14.12-13.45,21.17,1.43-.97,3.13-1.97,5.1-2.85.77-.35,1.52-.65,2.25-.92h-1.74v-3.48h13.05v3.48c-5.28,1.07-9.32,2.72-12.03,4.04-1.71.84-3.1,1.64-4.03,2.21-2.92,1.78-6.09,4.29-8.6,6.64l-2.66-2.2L20.67.03l3.17-.03c.95,2.03,2.3,4.89,3.95,8.31,1.57,3.26,2.8,5.71,4.07,8.32,2.67,5.48,5.43,11.15,8.14,16.39l-3.09,1.6Z"/></g></svg>