<?xml version="1.0" encoding="UTF-8"?><svg id="Layer_2" xmlns="http://www.w3.org/2000/svg" viewBox="0 0 50 43.3"><defs><style>.cls-1{fill:#d9886a;}</style></defs><g id="Layer_1-2"><path class="cls-1" d="m46.14,43.26c-3.42-6.76-6.82-13.62-10.22-20.58-2.82-5.79-5.59-11.53-8.29-17.24-5.6,8.82-11.2,17.65-16.81,26.47,1.79-1.22,3.92-2.46,6.38-3.57.97-.43,1.91-.81,2.81-1.15h-2.18v-4.35h16.32v4.35c-6.6,1.33-11.65,3.4-15.04,5.05-2.14,1.04-3.87,2.05-5.04,2.76-3.65,2.22-7.61,5.36-10.75,8.3l-3.32-2.75L25.83.03l3.97-.03c1.19,2.54,2.88,6.11,4.94,10.38,1.96,4.07,3.5,7.14,5.09,10.39,3.34,6.85,6.79,13.94,10.17,20.48l-3.86,2Z"/></g></svg>