<?xml version="1.0" encoding="UTF-8"?><svg id="Layer_2" xmlns="http://www.w3.org/2000/svg" viewBox="0 0 131.3 134.68"><defs><style>.cls-1{fill:#682480;}.cls-2{fill:#499334;}</style></defs><g id="Layer_1-2"><g><g><path class="cls-2" d="m111.82,126.16c-11.2-1.96-22.7-2.16-33.9-.44-16.56,2.46-33.79,11-50.43,4.27-10.58-3.92-18.9-17.89-11.47-28.07,3.73-5.04,11.17-7.97,16.86-4.76-5.76-2.97-12.89.07-16.44,5.06-6.96,9.86,1.24,23.2,11.4,26.91,16.48,6.48,33.38-1.95,49.97-4.17,11.3-1.56,22.86-1.18,34.01,1.19h0Z"/><path class="cls-2" d="m111.45,125.21c-13.33-2.92-27.14-3.43-40.58-1.19-13.34,2.21-27.45,5.78-40.66.91-8.37-2.91-16.98-10.98-15.71-20.45,1.2-7.35,10.4-11.66,16.76-8.04,0,0,.7.43.7.43-.59-.34-1.33-.68-1.96-.93-4.55-1.65-9.93.21-12.86,3.97-4.21,5.12-1.72,12.39,2.31,16.82,5.97,6.92,15.43,9.45,24.3,9.64,9.09.26,18.02-1.83,26.97-3.2,13.51-2.12,27.49-1.36,40.72,2.04h0Z"/><path class="cls-2" d="m111.04,124.16c-9.66-2.53-19.62-3.93-29.58-3.92-14.87-.04-30.06,4.3-44.88.61-7.31-1.7-14.6-5.39-18.88-11.79-3.13-4.34-3.34-10.59,1.87-13.39,3.1-1.8,7.13-1.79,10.14.02.48.24.92.55,1.34.88-.43-.31-.88-.6-1.37-.82-.89-.49-1.82-.79-2.8-1.01-8.8-1.3-14.1,6.53-8.6,13.94,4.29,6.12,11.35,9.64,18.51,11.27,14.77,3.54,29.69-.71,44.67-.45,10.03.14,20.01,1.75,29.57,4.66h0Z"/><path class="cls-2" d="m110.56,123.01c-8.08-2.53-16.38-4.29-24.78-5.16-8.42-.91-16.86-.47-25.32-.31-14.42.17-31.28-1.47-41.42-12.98-4.74-5.46-2.57-11.24,4.55-11.16,1.94.1,3.83.82,5.42,1.96.4.29.77.61,1.13.94-.72-.65-1.58-1.16-2.44-1.61-1.47-.73-3.24-1.11-4.9-1-6.24.61-7.53,5.72-3.26,10.46,4.14,4.75,9.98,7.7,15.94,9.54,12.16,3.8,25.08,2.8,37.67,2.73,12.72-.02,25.46,2.32,37.41,6.6h0Z"/><path class="cls-2" d="m110.01,121.69c-11.25-4.08-22.95-6.86-34.87-7.8-11.93-.89-24.06-.78-35.69-4.09-5.8-1.57-11.51-3.84-16.39-7.43-2.59-1.96-8.43-6.66-3.97-9.55,3.61-1.68,7.7.47,10.14,3.17-1.91-1.92-4.49-3.4-7.26-3.44-3.41-.04-5.28,2.31-2.98,5.24,1.16,1.5,2.83,2.89,4.46,4.05,4.88,3.42,10.5,5.58,16.23,7.11,11.56,3.15,23.65,3.1,35.53,4.09,11.95,1.06,23.72,4.12,34.8,8.66h0Z"/><path class="cls-2" d="m109.35,120.21c-7.2-3-14.59-5.54-22.13-7.47-15.12-3.93-30.99-3.96-46.03-8.38-7.52-2.09-14.97-5.03-21.22-9.86-.81-.6-2.46-2.49-.92-3.42,3.44-1.26,7.36,2.05,9.26,4.62-2.01-2.42-5.76-5.47-9.06-4.28-2.64,2.11,9.48,7.64,11.16,8.34,18.07,7.83,38.2,7.18,56.99,12.3,7.54,2.07,14.89,4.82,21.95,8.14h0Z"/><path class="cls-2" d="m108.56,118.49c-13.26-6.39-27.21-11.15-41.67-13.94-15.83-3.28-32.13-7.01-46.47-14.25-1.89-.96-1.24-1.95.6-1.06,2.7,1.31,4.74,3.53,6.29,6.04-1.42-2.03-4.49-5.64-7.66-6,.05-.12.01-.03.11.05.24.25.56.41.87.57,14.5,6.84,30.68,10.35,46.45,13.73,14.45,2.85,28.49,7.87,41.47,14.86h0Z"/><path class="cls-2" d="m107.59,116.48c-6.67-3.57-13.45-6.94-20.47-9.74-13.88-6.03-28.81-9.09-43.25-13.52-7.32-1.92-14.49-4.81-21.89-6.34,0,0,.11.04.11.04-.29-.03-.53-.08-.75-.11.14.01-.77-.06-.76-.06-.06,0-.12,0-.14.01-.04.04.05-.07.03-.08.29.52.84.98,1.23,1.46,2,2.16,3.47,4.25,4.78,6.96-.77-1.47-2-3.24-2.85-4.31-.99-1.41-2.76-2.72-3.56-4.04-.05-.64.98-.35,1.34-.38,1.86.16,4.17.71,6.35,1.32,5.46,1.56,10.9,3.16,16.37,4.69,10.9,3.16,21.95,5.85,32.71,9.51,10.73,3.75,21.02,8.78,30.76,14.6h0Z"/><path class="cls-2" d="m106.34,114.04c-2.03-1.17-10.5-6.07-12.27-7.1-9.1-4.9-18.59-9.39-28.38-12.7-7.17-2.36-14.32-4.83-21.6-6.81-5.43-1.55-10.88-3.17-16.47-3.99-1.9-.25-4.21-.37-5.79.28,0,0-.02,0-.02,0l-.11.05-.04.02s.05-.02.06-.04c-1.2.72-.1,2.39.31,3.37,0,0,1.78,3.56,1.78,3.56.51,1.01,1.27,2.8,1.76,4.13-.56-1.33-1.35-2.96-1.93-4.05,0,0-1.9-3.49-1.9-3.49-.62-1.09-1.62-3.17-.4-3.8.08-.09.17-.13.29-.19,0,0-.02,0-.02,0l.21-.11s.08-.02.11-.03c5.06-1.43,11.55.77,16.93,1.9,5.47,1.53,10.98,2.94,16.38,4.71,10.82,3.42,21.63,7.18,31.62,12.64,1.44.8,6.04,3.28,7.48,4.08,1.94,1.19,10,6.29,12.01,7.55h0Z"/><path class="cls-2" d="m104.68,111c-12.16-8.25-25.65-16.91-39.32-22.3-6.3-2.32-14.95-5.77-21.41-7.25-5.44-1.28-11.04-2.73-16.65-2.3-1.75.18-3.93.78-4.94,2.05-1.11,1.5-.5,3.62-.08,5.3.68,2.47,1.75,5.55,2.38,8.02-.76-2.43-2-5.68-2.69-7.92-.54-1.83-1.21-4.16.03-5.76,2.05-2.56,7.42-2.71,10.97-2.31,11.38,1.2,22.17,5.18,32.76,9.29,13.92,5.57,26.94,14.26,38.96,23.18h0Z"/><path class="cls-2" d="m102.21,106.85c-17.67-13.75-36.88-26.88-59.19-31.36-6.36-1.11-17.56-2.83-20.47,4.44-.72,2.45-.39,5.14,0,7.61.3,1.95.87,4.71,1.19,6.68-.9-4.8-2.82-9.55-1.7-14.46,2.79-7.59,14.24-6.45,21.14-5.16,22.51,4.33,41.86,17.66,59.02,32.24h0Z"/><path class="cls-2" d="m97.71,100.19c-11.12-9.51-23.07-19.22-36.59-25-12.24-5.72-38.97-11.81-38.89,8.53-.08,3.34.32,6.86.59,10.21,0,0-.05-.39-.05-.39-.55-4.25-1.2-8.36-.84-12.64,2.33-18.23,27.91-12.01,39.57-6.57,13.6,5.87,25.46,15.83,36.2,25.87h0Z"/><path class="cls-2" d="m72.32,74.76c-11.05-6.65-24.41-12.48-37.45-9.16-9.91,2.79-12.67,11.72-12.86,21.06-.1,2.07-.1,4.93-.11,6.96-.14-2.11-.28-4.94-.27-6.97-.42-14.06,6.07-23.19,21-22.98,10.82.24,20.97,4.98,29.68,11.08h0Z"/><path class="cls-2" d="m57.86,61.17c-15.99-4.84-31-.46-34.87,17.25-1.19,4.88-1.58,9.93-1.99,14.93,0-5.04.2-10.12,1.24-15.1,3.48-18.18,19.59-23.29,35.62-17.08h0Z"/></g><g><path class="cls-2" d="m84.38,26.88c-1.15-6.69-8.36-10.6-14.72-10.08-10.21.81-15.77,12.29-14.58,21.59,1.16,9.82,7.68,17.95,14.84,24.39,6.03,5.49,12.77,10.3,18.63,16.06,12.92,12.66,22.27,28.92,26.7,46.46-5.34-18.89-16.19-36.17-30.92-49.14-9.79-8.55-21.49-15.98-27.31-28.13-2.91-5.96-3.96-13.06-1.7-19.41,2.02-6.26,7.45-11.97,14.31-12.3,6.51-.37,13.76,3.77,14.76,10.57h0Z"/><path class="cls-2" d="m84.07,25.97c-.36-6.39-7.04-11.28-13.21-9.89-3.01.69-5.48,2.89-7.16,5.42-5.15,8-3.83,18.46.55,26.53,5.84,11.23,16.29,18.83,24.93,27.81,8.74,9.09,15.66,19.88,20.5,31.5,2.41,5.81,4.26,11.84,5.61,17.97-1.5-6.09-3.51-12.06-6.06-17.78-5-11.46-12.03-22.05-20.71-31.06-8.73-8.93-19.27-16.63-25.08-28.02-2.92-5.61-4.63-12.09-3.61-18.42.92-6.11,4.46-12.92,10.93-14.43,6.39-1.26,13.1,3.85,13.31,10.37h0Z"/><path class="cls-2" d="m83.76,25.06c.37-5.84-5.55-12.42-11.47-9.33-2.53,1.49-4.2,4.16-5.19,6.92-3.05,8.55-.7,17.98,3.52,25.74,5.71,10.67,15.08,18.6,22.63,27.93,11.36,14.1,18.95,31.23,22.08,49.01-3.71-17.62-11.42-34.45-22.79-48.44-3.79-4.65-8.04-8.91-12.07-13.4-7.95-8.89-15.4-19.69-15.53-32.08.1-5.92,1.69-12.82,7.11-16.1,6.18-3.08,12.29,3.68,11.7,9.76h0Z"/><path class="cls-2" d="m83.44,24.15c.5-3.98-1.11-9.59-5.67-10.1-4.2.07-5.92,6.43-6.45,9.85-1.26,8.6,1.56,17.22,5.57,24.77,5.45,10.26,13.76,18.55,20.2,28.18,9.69,14.48,15.9,31.29,18.27,48.51-2.97-17.07-9.32-33.62-19.03-48-6.52-9.56-14.86-17.9-20.25-28.26-4.06-7.67-6.84-16.54-5.39-25.29.62-4.26,3.62-12.59,9.21-9.42,3.2,2.03,4.06,6.28,3.53,9.77h0Z"/><path class="cls-2" d="m83.13,23.25c.58-3.18.94-7.49-1.91-9.66-1.24-.78-2.6.12-3.26,1.25-4.83,9.66.35,24.88,5.02,33.93,4.44,8.73,10.57,16.5,15.6,24.91,9.3,15.73,15.03,33.54,16.83,51.7-2.91-22.26-11.4-43.56-24.52-61.76-7.78-11.53-15.22-24.42-15.41-38.72.03-3.47.2-7.28,2.13-10.3,1.44-2.32,4.04-2.13,5.17.36,1.27,2.61.99,5.6.35,8.29h0Z"/><path class="cls-2" d="m82.82,22.34c.9-3.14,1.77-6.88.24-9.9-.2-.27-.43-.35-.61-.14-.86,1.38-.89,3.22-1.09,4.82-.83,10.96,2.87,21.62,7.45,31.42,4.62,9.92,10.92,19,15.12,29.14,6.76,14.99,10.44,31.37,11.53,47.72-1.68-16.28-5.55-32.45-12.36-47.35-6.6-15-16.88-28.39-20.78-44.59-1.38-5.33-1.92-10.89-1.44-16.38.19-1.17.48-5.44,1.96-5.21.87.43.97,1.57,1.13,2.38.35,2.76-.23,5.53-1.16,8.09h0Z"/><path class="cls-2" d="m82.5,21.43c1.43-3.31,2.41-6.83,2.63-10.42-.07-.07.64.03.34.02,0,.18.07,1.13.08,1.33.48,17.8,7.86,34.16,15.33,50.02,3.39,7.36,6.31,15.09,8.55,22.89,3.69,13.06,5.72,26.61,6.07,40.15-.86-13.51-3.09-26.93-6.9-39.92-2.27-7.76-5.2-15.39-8.62-22.72-7.38-15.87-14.81-32.55-14.79-50.41,0,0-.04-1.02-.04-1.02v-.25s0-.06,0-.06c-.29-.02.4.03.33,0-.32,3.61-1.4,7.14-2.97,10.38h0Z"/><path class="cls-2" d="m82.19,20.52c1.7-2.99,2.91-6.21,4.38-9.31,1.74-3.58,2.94.84,3.39,2.55,1.33,5.34,2.34,10.73,3.98,15.95,1.38,4.55,3.59,11.04,5.26,15.57,1.58,4.51,3.94,10.92,5.64,15.46,3.75,10.33,6.52,21.04,8.24,31.89,1.74,10.85,2.59,21.84,2.46,32.82-.6-21.87-4.06-43.8-11.64-64.37-2.67-7.19-5.75-16.02-8.28-23.27-.87-2.6-1.62-5.25-2.42-7.88-1.81-5.93-2.61-12.08-4.26-18.01-.27-.71-.76-2.38-1.55-1.39-1.98,3.17-3.15,6.84-5.21,9.99h0Z"/><path class="cls-2" d="m81.88,19.62c6.39-9.79,9.27-17.62,14.46-1.24,4.17,13.33,8.66,26.81,12.47,40.23,5.89,21.71,7.77,44.44,6.78,66.86.05-5.61,0-11.23-.3-16.83-.52-11.2-1.71-22.37-3.71-33.4-1.86-11.06-5.24-21.78-8.51-32.5-1.63-5.31-5.83-19.01-7.34-24.17-4.76-16.09-7.28-8.04-13.86,1.04h0Z"/><path class="cls-2" d="m81.56,18.71c2.99-3.25,7.89-12.12,12.97-10.53,4.8,1.76,7.19,10.16,9.02,14.58,1.96,5.36,3.77,11.07,5.17,16.59,3.17,11.15,5.72,22.51,6.68,34.09,1.62,17.3,1.67,34.74.23,52.05.96-23.03.67-46.39-3.69-69.07-1.73-8.47-3.99-16.87-6.43-25.17-2.25-6.78-4.05-13.95-7.98-19.98-5.64-8.07-12.03,3.41-15.97,7.44h0Z"/><path class="cls-2" d="m81.25,17.8c4.81-4.67,10.99-13.73,18.63-9.7,10.24,6.9,15.67,33.57,17.35,45.58,2.23,17.92,1.34,35.99.2,53.94-.47,5.98-1.02,11.95-1.75,17.9.51-5.97.97-11.95,1.26-17.93,1.28-26.75,2.17-54.29-6.6-79.95-.32-1.07-1.05-3.2-1.46-4.23-2.39-5.71-5.97-16.12-13.43-15.84-5.98.79-9.99,6.41-14.2,10.23h0Z"/><path class="cls-2" d="m80.94,16.9c5.62-4.91,11.92-11.83,20.11-10.57,10.19,2.28,15.3,17.23,17.72,26.23,4.8,18.25,3.4,37.36,1.6,55.9-1.2,12.41-2.69,24.79-4.65,37.09,1.54-12.36,2.86-24.75,3.89-37.16.94-12.25,2.13-25.01,1.14-37.24-.68-12.24-6.02-40.91-19.8-44.26-8.02-1.31-14.3,5.39-20,10.02h0Z"/><path class="cls-2" d="m80.62,15.99c5.08-4.01,10.26-8.24,16.58-10.09,14.41-4.25,23.51,11.3,26.58,23.16,3.41,12.66,3.12,25.96,1.54,38.86-2.3,17.88-6.51,39.8-9.56,57.65,1.42-9.63,4.38-28.89,5.9-38.5,1.98-12.81,4.11-25.68,3.78-38.63-.21-13.89-4.34-35.96-18.69-41.82-9.7-3.29-18.76,3.87-26.13,9.37h0Z"/><path class="cls-2" d="m80.31,15.08c8.11-5.68,17.51-12.11,27.96-10.54,10.57,1.58,17.51,11.42,20.47,21.01,3.99,13.17,2.73,27.18.26,40.48-2.16,11.65-6.11,28.01-8.65,39.74,0,0-4.54,19.81-4.54,19.81l4.06-19.92,4.17-19.9c4.02-19.62,9.57-40.17,3.84-59.95-2.86-9.33-9.47-18.98-19.7-20.66-10.27-1.63-19.65,4.47-27.86,9.92h0Z"/></g><path class="cls-2" d="m99.16,99.45c9.25,8.85,15.51,20.95,16.67,33.82.07.71-.46,1.34-1.17,1.41-.71.07-1.34-.46-1.41-1.17-.41-12.49-5.88-24.61-14.42-33.75-.19-.19.12-.52.32-.32h0Z"/><g><path class="cls-1" d="m.79,1.36c13.36-3.46,32.8-.71,39.86,12.58,2.35,4.58,1.33,9.91.73,14.71-.83,6.47,1.58,13.2,6.18,17.9-4.82-4.54-7.48-11.33-6.75-17.96.47-4.86,1.53-9.85-.8-14.34C32.98,1.31,14.04-1.43.79,1.36h0Z"/><path class="cls-1" d="m47.54,46.56c-4.61-4.36-7.68-10.59-7.49-17.02.02-3.19.51-6.35-.11-9.41-2.16-9.43-11.71-14.9-20.39-17.44C13.5.94,7.07.42.81,1.34c3.11-.58,6.3-.82,9.48-.68,9.48.52,19.25,3.77,25.88,10.86,5.15,5.49,5.04,11.07,4.45,18.03-.29,6.32,2.55,12.51,6.91,17.01h0Z"/><path class="cls-1" d="m47.53,46.57c-4.41-4.22-7.8-9.89-8.19-16.1-.23-3.07.02-6.15-.82-9.05-.84-2.88-2.49-5.48-4.55-7.68C27.75,7.1,18.87,3.23,9.96,1.75c-3.01-.5-6.07-.65-9.13-.43,3.04-.34,6.13-.31,9.18.07,9.11,1.26,18.1,5.08,24.51,11.85,2.1,2.27,3.8,4.98,4.66,8,.84,3.04.6,6.18.74,9.19.28,6.1,3.45,11.78,7.62,16.13h0Z"/><path class="cls-1" d="m47.52,46.59c-4.25-4.09-7.84-9.25-8.87-15.18-.5-2.95-.53-5.93-1.58-8.65-1.05-2.71-2.75-5.14-4.76-7.26-6.05-6.41-14.21-10.71-22.7-12.94C6.76,1.81,3.82,1.35.85,1.3c2.96-.08,5.93.26,8.84.88,8.69,2.03,16.95,6.3,23.16,12.79,2.04,2.19,3.78,4.7,4.85,7.54,1.06,2.86,1.1,5.91,1.51,8.8.89,5.83,4.29,11.05,8.3,15.27h0Z"/><path class="cls-1" d="m47.51,46.6c-4.12-3.97-7.81-8.67-9.5-14.29-.79-2.8-1.13-5.67-2.4-8.21C30.35,14.24,19.43,7.3,9.2,3.39,6.52,2.4,3.73,1.64.87,1.28c12.95,1.22,29.35,10.74,35.35,22.53,1.28,2.66,1.64,5.6,2.33,8.35,1.53,5.51,5.05,10.32,8.95,14.44h0Z"/><path class="cls-1" d="m47.5,46.61c-4.03-3.88-7.8-8.21-10.1-13.43-1.11-2.62-1.79-5.34-3.25-7.7-6.08-9.35-15.59-16.18-25.42-21.2C6.22,3.04,3.61,1.97.89,1.26c12.33,2.88,27.13,13.05,33.84,23.87,1.48,2.46,2.2,5.25,3.19,7.83,2.14,5.15,5.75,9.61,9.57,13.65h0Z"/><path class="cls-1" d="m47.48,46.62c-3.97-3.81-7.78-7.86-10.67-12.62-1.41-2.4-2.49-4.92-4.13-7.11-4.92-6.58-11.23-12.05-17.75-17.02C10.53,6.59,5.94,3.49.91,1.24c5.14,2.01,9.88,4.95,14.36,8.16,6.66,4.9,13.07,10.37,17.97,17.09,1.64,2.26,2.76,4.83,4.07,7.22,2.74,4.74,6.41,8.94,10.17,12.91h0Z"/><path class="cls-1" d="m47.47,46.63c-3.95-3.75-7.8-7.61-11.23-11.87-1.7-2.15-3.21-4.4-5-6.43C22.15,18.28,12,9.07.93,1.22c11.48,7.3,21.8,16.49,30.83,26.66,1.79,2.08,3.32,4.35,4.93,6.52,3.31,4.3,7.03,8.3,10.77,12.23h0Z"/><path class="cls-1" d="m47.46,46.64C32.25,32.41,15.66,15.95.95,1.2c15.65,14.26,31.72,30.27,46.5,45.44h0Z"/><path class="cls-1" d="m47.45,46.66c-3.96-3.71-8.03-7.33-12.4-10.54-2.2-1.56-4.49-3.08-6.6-4.82C18.11,22.45,8.89,12.22.97,1.18c8.44,10.6,17.69,20.67,27.9,29.58,2.07,1.75,4.33,3.23,6.51,4.89,4.34,3.32,8.28,7.1,12.06,11.01h0Z"/><path class="cls-1" d="m47.43,46.67c-4-3.73-8.27-7.29-13.06-9.94-2.41-1.26-4.98-2.35-7.28-3.94-6.81-4.75-12.35-11.09-17.41-17.61C6.37,10.79,3.25,6.19.99,1.16c1.23,2.46,2.7,4.79,4.26,7.05,6.29,8.9,13.4,17.55,22.23,24.02,2.22,1.58,4.75,2.64,7.17,4,4.81,2.79,8.95,6.5,12.78,10.44h0Z"/><path class="cls-1" d="m47.42,46.68c-4.06-3.78-8.59-7.28-13.77-9.34-2.59-.96-5.37-1.64-7.87-3.04C14.99,27.99,4.4,13.1,1.01,1.14c.83,2.68,2,5.23,3.33,7.69,5.39,9.6,12.3,19.02,21.77,24.88,2.43,1.4,5.15,2.05,7.75,3.11,5.24,2.21,9.66,5.88,13.56,9.87h0Z"/><path class="cls-1" d="m47.41,46.69c-4.14-3.86-9.01-7.28-14.53-8.73-2.74-.66-5.68-.96-8.37-2.16C12.72,30.24,2.74,13.79,1.03,1.12c.47,2.83,1.34,5.58,2.42,8.23,3.26,7.88,8.06,15.28,14.35,21.05,2.1,1.91,4.41,3.61,6.98,4.78,2.61,1.19,5.48,1.48,8.24,2.23,5.63,1.61,10.39,5.2,14.38,9.28h0Z"/><path class="cls-1" d="m47.4,46.7c-4.25-3.98-9.51-7.26-15.33-8.1-2.88-.38-5.92-.35-8.8-1.32-2.87-.97-5.42-2.66-7.65-4.63-6.62-6.05-11.05-14.19-13.37-22.77C1.53,7,1.09,4.05,1.05,1.1c.15,2.95.72,5.86,1.54,8.69,2.52,8.38,6.99,16.43,13.51,22.31,2.17,1.94,4.63,3.59,7.37,4.54,2.74.97,5.72.93,8.67,1.4,5.92.96,11.13,4.45,15.25,8.67h0Z"/><path class="cls-1" d="m47.38,46.71c-4.38-4.13-10.09-7.2-16.17-7.44-3-.11-6.12.2-9.18-.53-3.05-.73-5.79-2.37-8.12-4.39C7,28.13,2.99,19.26,1.44,10.23c-.47-3.03-.6-6.1-.36-9.15-.12,3.05.14,6.1.72,9.08,1.77,8.82,5.82,17.59,12.61,23.62,2.25,1.99,4.89,3.57,7.79,4.3,2.91.74,5.98.42,9.05.62,6.19.35,11.89,3.64,16.14,8.01h0Z"/><path class="cls-1" d="m47.37,46.72c-4.53-4.31-10.73-7.08-17.03-6.75-6.88.65-12.52,1.03-18.12-3.94C4.97,29.61,1.49,19.96.69,10.53c-.23-3.17-.08-6.35.4-9.47-.36,3.14-.39,6.31-.04,9.44,1.02,9.22,4.56,18.77,11.65,24.97,5.49,4.92,10.76,4.4,17.62,3.93,6.42-.22,12.65,2.77,17.04,7.33h0Z"/><path class="cls-1" d="m47.36,46.74c-4.73-4.54-11.45-6.9-17.9-6.04-6.95,1.1-13.11,2.1-18.94-2.97C2.9,31.06.09,20.58,0,10.81.02,7.52.41,4.24,1.11,1.04-.05,7.47.09,14.14,1.64,20.48c1.88,7.71,5.93,15.75,13.42,19.24,4.56,2.16,9.51.9,14.35.4,6.6-.76,13.39,1.84,17.95,6.61h0Z"/></g></g></g></svg>